<svg width="33" height="32" viewBox="0 0 33 32" fill="none" xmlns="http://www.w3.org/2000/svg">
<path d="M5.99017 12.9416L13.3402 15.7016L15.7702 16.6116C15.9039 16.6514 16.0464 16.6514 16.1802 16.6116L25.8202 12.9916L25.9902 12.9116L23.7102 12.0516C23.5869 12.0137 23.4666 11.9669 23.3502 11.9116C23.2519 11.8801 23.1614 11.828 23.0847 11.7589C23.008 11.6897 22.9468 11.6051 22.9052 11.5106C22.8637 11.4161 22.8426 11.3138 22.8434 11.2106C22.8443 11.1073 22.867 11.0054 22.9102 10.9116C22.9423 10.8134 22.9943 10.7228 23.0631 10.6456C23.1318 10.5685 23.2158 10.5063 23.3097 10.4632C23.4036 10.42 23.5054 10.3967 23.6087 10.3947C23.7121 10.3927 23.8147 10.4121 23.9102 10.4516C24.3302 10.5916 24.7302 10.7616 25.1502 10.9116C26.1502 11.3016 27.1502 11.6916 28.2202 12.0616C28.551 12.1686 28.834 12.3879 29.0202 12.6816C29.9302 14.0716 30.8602 15.4516 31.7802 16.8416C32.2302 17.5116 32.0902 17.9616 31.3302 18.2516C30.5702 18.5416 29.9602 18.7716 29.2602 19.0216C29.1698 19.041 29.0903 19.0943 29.0382 19.1706C28.9861 19.247 28.9653 19.3404 28.9802 19.4316C28.9802 21.0516 28.9802 22.6716 28.9802 24.2916C29.0255 25.1307 28.7922 25.9612 28.3165 26.6539C27.8409 27.3466 27.1495 27.8626 26.3502 28.1216C23.0602 29.3616 19.7602 30.6016 16.4602 31.8116C16.1848 31.9069 15.8855 31.9069 15.6102 31.8116C12.2769 30.5783 8.94352 29.335 5.61019 28.0816C4.86285 27.8175 4.21651 27.3267 3.76122 26.6778C3.30594 26.029 3.06439 25.2543 3.07018 24.4616C3.07018 22.8016 3.07018 21.1316 3.07018 19.4616C3.08517 19.3587 3.06045 19.2539 3.00103 19.1684C2.94161 19.083 2.85193 19.0234 2.75017 19.0016C2.04018 18.7516 1.34019 18.4816 0.64019 18.2216C0.502375 18.1965 0.373853 18.1348 0.26815 18.0428C0.162447 17.9509 0.0834423 17.8322 0.039451 17.6992C-0.00454025 17.5662 -0.0118898 17.4238 0.0181497 17.287C0.0481892 17.1502 0.114508 17.024 0.210166 16.9216C1.21017 15.4816 2.13018 14.0316 3.10018 12.5916C3.25248 12.3821 3.4603 12.2193 3.70019 12.1216C4.95019 11.6316 6.21018 11.1716 7.47018 10.7016C8.01018 10.5016 8.47017 10.6516 8.59017 11.1116C8.71017 11.5716 8.52019 11.9316 7.98019 12.1116L5.99017 12.9416ZM16.7902 20.0817V30.0816L19.5902 29.0316L25.8902 26.6616C26.3138 26.5379 26.6877 26.2839 26.9587 25.9357C27.2298 25.5874 27.3842 25.1627 27.4002 24.7216C27.4602 23.0716 27.4002 21.4216 27.4002 19.7216L27.0502 19.8516L19.5802 22.6516C18.8602 22.9116 18.6502 22.8416 18.2302 22.2216L16.7902 20.0817ZM4.57018 19.7616V24.3816C4.53678 24.9024 4.68071 25.4192 4.97851 25.8477C5.27631 26.2763 5.71042 26.5913 6.21017 26.7416C9.08017 27.8316 11.9602 28.9016 14.8402 29.9816C14.9602 30.0316 15.0802 30.0516 15.1902 30.0916V20.0916L13.6802 22.3516C13.6362 22.4578 13.5698 22.5532 13.4856 22.6315C13.4014 22.7097 13.3013 22.7688 13.1922 22.8049C13.083 22.8409 12.9674 22.853 12.8532 22.8404C12.7389 22.8278 12.6288 22.7907 12.5302 22.7316L9.29018 21.5216L4.57018 19.7616ZM30.0702 17.1316C29.4002 16.1316 28.7502 15.1816 28.1302 14.2116C28.1071 14.1538 28.0718 14.1017 28.0267 14.0589C27.9815 14.016 27.9276 13.9835 27.8686 13.9635C27.8097 13.9435 27.7471 13.9366 27.6852 13.9432C27.6233 13.9498 27.5636 13.9697 27.5102 14.0016C24.2002 15.2616 20.8802 16.4916 17.5702 17.7416C17.4364 17.7893 17.3061 17.8461 17.1802 17.9116C17.8502 18.9116 18.5002 19.9116 19.1802 20.8516C19.2009 20.9051 19.2332 20.9534 19.2747 20.993C19.3163 21.0326 19.3661 21.0625 19.4205 21.0807C19.4749 21.0988 19.5327 21.1048 19.5897 21.098C19.6467 21.0913 19.7015 21.072 19.7502 21.0416L26.7502 18.3916L30.0702 17.1316ZM14.8202 17.9116L14.6302 17.8216L4.35018 13.9416C4.13018 13.8616 4.04017 13.9416 3.93017 14.1116C3.38017 14.9516 2.82016 15.7816 2.27016 16.6116L1.93017 17.1316L5.45019 18.4416L12.3502 21.0416C12.3914 21.0673 12.4377 21.0838 12.4858 21.0901C12.5339 21.0964 12.5829 21.0923 12.6293 21.078C12.6757 21.0638 12.7186 21.0398 12.7549 21.0077C12.7913 20.9755 12.8204 20.936 12.8402 20.8916C13.0802 20.4816 13.3602 20.0916 13.6202 19.6916L14.8202 17.9116Z" fill="#60FF00"/>
<path d="M16.7701 4.55154C16.7701 5.74154 16.7701 6.93155 16.7701 8.12155C16.7899 8.27424 16.7899 8.42887 16.7701 8.58157C16.7275 8.74441 16.6314 8.88817 16.4972 8.98974C16.3629 9.09132 16.1984 9.1448 16.0301 9.14157C15.8691 9.13992 15.7132 9.08506 15.5866 8.98559C15.46 8.88612 15.3699 8.74759 15.3302 8.59155C15.2938 8.441 15.277 8.2864 15.2801 8.13156V1.00155C15.2748 0.83281 15.295 0.664227 15.3401 0.501551C15.3845 0.352188 15.4775 0.22191 15.6043 0.131343C15.7311 0.040775 15.8845 -0.00490409 16.0402 0.0015514C16.1979 -0.00903986 16.3544 0.0348368 16.4837 0.12585C16.6129 0.216862 16.707 0.349492 16.7501 0.501551C16.8008 0.659658 16.8211 0.825888 16.8101 0.991542C16.7701 2.18154 16.7701 3.36154 16.7701 4.55154Z" fill="#60FF00"/>
<path d="M11.3104 10.6617C11.1504 10.6044 11.0015 10.5198 10.8704 10.4117C9.36376 8.91168 7.8571 7.40834 6.35043 5.90167C6.27756 5.83084 6.21961 5.74614 6.18005 5.65253C6.1405 5.55892 6.12012 5.45832 6.12012 5.35669C6.12012 5.25506 6.1405 5.15446 6.18005 5.06085C6.21961 4.96724 6.27756 4.88251 6.35043 4.81168C6.41975 4.73621 6.50399 4.67598 6.59781 4.63477C6.69162 4.59355 6.79295 4.57227 6.89542 4.57227C6.99789 4.57227 7.09924 4.59355 7.19305 4.63477C7.28687 4.67598 7.37111 4.73621 7.44043 4.81168L12.0004 9.38168C12.1168 9.48622 12.1948 9.62675 12.222 9.78082C12.2492 9.93489 12.224 10.0936 12.1504 10.2317C12.0753 10.3842 11.953 10.5084 11.8017 10.5859C11.6504 10.6633 11.4781 10.6899 11.3104 10.6617Z" fill="#60FF00"/>
<path d="M20.5695 10.7613C20.3403 10.6275 20.1258 10.47 19.9295 10.2913C19.846 10.1804 19.8008 10.0452 19.8008 9.90631C19.8008 9.76741 19.846 9.63226 19.9295 9.5213C19.9875 9.43137 20.0545 9.3476 20.1295 9.2713C21.5895 7.8213 23.0296 6.35132 24.5096 4.91132C24.6942 4.7229 24.9458 4.61509 25.2095 4.61133C25.3388 4.63475 25.4611 4.68747 25.5668 4.76547C25.6725 4.84348 25.759 4.94468 25.8195 5.06131C25.871 5.31976 25.8322 5.58807 25.7095 5.82132C25.5832 6.00807 25.428 6.17348 25.2495 6.31131C23.9095 7.65131 22.5795 8.99131 21.2495 10.3113C21.0359 10.4801 20.8084 10.6307 20.5695 10.7613Z" fill="#60FF00"/>
</svg>
