<svg width="33" height="32" viewBox="0 0 33 32" fill="none" xmlns="http://www.w3.org/2000/svg">
<path d="M5.99017 12.8724L13.3402 15.6176L15.7702 16.5228C15.9039 16.5623 16.0464 16.5623 16.1802 16.5228L25.8202 12.9221L25.9902 12.8425L23.7102 11.9871C23.5869 11.9494 23.4666 11.9029 23.3502 11.8479C23.2519 11.8165 23.1614 11.7647 23.0847 11.6959C23.008 11.6272 22.9468 11.543 22.9052 11.449C22.8637 11.355 22.8426 11.2533 22.8434 11.1506C22.8443 11.0479 22.867 10.9465 22.9102 10.8532C22.9423 10.7555 22.9943 10.6654 23.0631 10.5886C23.1318 10.5119 23.2158 10.4501 23.3097 10.4071C23.4036 10.3642 23.5054 10.341 23.6087 10.339C23.7121 10.337 23.8147 10.3563 23.9102 10.3957C24.3302 10.5349 24.7302 10.704 25.1502 10.8532C26.1502 11.2411 27.1502 11.629 28.2202 11.9971C28.551 12.1035 28.834 12.3216 29.0202 12.6137C29.9302 13.9963 30.8602 15.3689 31.7802 16.7515C32.2302 17.4179 32.0902 17.8655 31.3302 18.154C30.5702 18.4424 29.9602 18.6712 29.2602 18.9199C29.1698 18.9391 29.0903 18.9922 29.0382 19.0681C28.9861 19.144 28.9653 19.2369 28.9802 19.3277C28.9802 20.939 28.9802 22.5504 28.9802 24.1617C29.0255 24.9963 28.7922 25.8224 28.3165 26.5114C27.8409 27.2004 27.1495 27.7136 26.3502 27.9713C23.0602 29.2046 19.7602 30.438 16.4602 31.6415C16.1848 31.7363 15.8855 31.7363 15.6102 31.6415C12.2769 30.4148 8.94352 29.1781 5.61019 27.9315C4.86285 27.6687 4.21651 27.1806 3.76122 26.5352C3.30594 25.8898 3.06439 25.1192 3.07018 24.3308C3.07018 22.6797 3.07018 21.0186 3.07018 19.3575C3.08517 19.2551 3.06045 19.1509 3.00103 19.0659C2.94161 18.9809 2.85193 18.9216 2.75017 18.9C2.04017 18.6513 1.34019 18.3828 0.64019 18.1242C0.502375 18.0992 0.373853 18.0377 0.26815 17.9463C0.162447 17.8549 0.0834423 17.7368 0.039451 17.6045C-0.00454025 17.4722 -0.0118898 17.3306 0.0181497 17.1945C0.0481892 17.0584 0.114508 16.9329 0.210166 16.8311C1.21017 15.3988 2.13018 13.9565 3.10018 12.5242C3.25248 12.3158 3.4603 12.1539 3.70019 12.0567C4.95019 11.5694 6.21018 11.1118 7.47018 10.6443C8.01018 10.4454 8.47017 10.5946 8.59017 11.0522C8.71017 11.5097 8.52019 11.8678 7.98019 12.0468L5.99017 12.8724ZM16.7902 19.9742V29.9208L19.5902 28.8764L25.8902 26.5191C26.3138 26.396 26.6877 26.1434 26.9587 25.797C27.2298 25.4506 27.3842 25.0281 27.4002 24.5894C27.4602 22.9482 27.4002 21.3071 27.4002 19.6161L27.0502 19.7454L19.5802 22.5305C18.8602 22.7891 18.6502 22.7195 18.2302 22.1028L16.7902 19.9742ZM4.57018 19.6559V24.2512C4.53678 24.7692 4.68071 25.2833 4.97851 25.7095C5.27631 26.1358 5.71042 26.4491 6.21017 26.5986C9.08017 27.6828 11.9602 28.7471 14.8402 29.8213C14.9602 29.8711 15.0802 29.8909 15.1902 29.9307V19.9842L13.6802 22.2321C13.6362 22.3377 13.5698 22.4326 13.4856 22.5104C13.4014 22.5882 13.3013 22.647 13.1922 22.6829C13.083 22.7188 12.9674 22.7308 12.8532 22.7182C12.7389 22.7057 12.6288 22.6688 12.5302 22.6101L9.29018 21.4065L4.57018 19.6559ZM30.0702 17.04C29.4002 16.0453 28.7502 15.1004 28.1302 14.1356C28.1071 14.0781 28.0718 14.0262 28.0267 13.9836C27.9815 13.941 27.9276 13.9086 27.8686 13.8888C27.8097 13.8689 27.7471 13.862 27.6852 13.8686C27.6233 13.8751 27.5636 13.8949 27.5102 13.9267C24.2002 15.18 20.8802 16.4034 17.5702 17.6467C17.4364 17.6941 17.3061 17.7506 17.1802 17.8158C17.8502 18.8105 18.5002 19.8051 19.1802 20.7401C19.2009 20.7933 19.2332 20.8413 19.2747 20.8807C19.3163 20.9201 19.3661 20.9499 19.4205 20.9679C19.4749 20.986 19.5327 20.9919 19.5897 20.9852C19.6467 20.9784 19.7015 20.9593 19.7502 20.9291L26.7502 18.2933L30.0702 17.04ZM14.8202 17.8158L14.6302 17.7263L4.35018 13.867C4.13018 13.7874 4.04017 13.867 3.93017 14.0361C3.38017 14.8716 2.82016 15.6972 2.27016 16.5228L1.93017 17.04L5.45019 18.343L12.3502 20.9291C12.3914 20.9546 12.4377 20.971 12.4858 20.9773C12.5339 20.9835 12.5829 20.9794 12.6293 20.9653C12.6757 20.9512 12.7186 20.9273 12.7549 20.8953C12.7913 20.8633 12.8204 20.824 12.8402 20.7799C13.0802 20.3721 13.3602 19.9842 13.6202 19.5863L14.8202 17.8158Z" fill="#BFC6D0"/>
<path d="M16.7701 4.52722C16.7701 5.71086 16.7701 6.89451 16.7701 8.07815C16.7899 8.23003 16.7899 8.38384 16.7701 8.53572C16.7275 8.69769 16.6314 8.84068 16.4972 8.94171C16.3629 9.04274 16.1984 9.09595 16.0301 9.09272C15.8691 9.09109 15.7132 9.03652 15.5866 8.93758C15.46 8.83864 15.3699 8.70085 15.3302 8.54564C15.2938 8.39591 15.277 8.24213 15.2801 8.08811V0.9962C15.2748 0.82836 15.295 0.660678 15.3401 0.498872C15.3845 0.350307 15.4775 0.220725 15.6043 0.130641C15.7311 0.0405572 15.8845 -0.00487789 16.0402 0.00154312C16.1979 -0.00899156 16.3544 0.0346507 16.4837 0.125177C16.6129 0.215704 16.707 0.347625 16.7501 0.498872C16.8008 0.656134 16.8211 0.821476 16.8101 0.986244C16.7701 2.16989 16.7701 3.34358 16.7701 4.52722Z" fill="#BFC6D0"/>
<path d="M11.3104 10.6047C11.1504 10.5478 11.0015 10.4636 10.8704 10.3561C9.36376 8.86408 7.8571 7.36877 6.35043 5.87016C6.27756 5.7997 6.21961 5.71545 6.18005 5.62234C6.1405 5.52923 6.12012 5.42917 6.12012 5.32808C6.12012 5.227 6.1405 5.12694 6.18005 5.03383C6.21961 4.94072 6.27756 4.85643 6.35043 4.78598C6.41975 4.71092 6.50399 4.65101 6.59781 4.61002C6.69162 4.56902 6.79295 4.54785 6.89542 4.54785C6.99789 4.54785 7.09924 4.56902 7.19305 4.61002C7.28687 4.65101 7.37111 4.71092 7.44043 4.78598L12.0004 9.33157C12.1168 9.43556 12.1948 9.57534 12.222 9.72858C12.2492 9.88183 12.224 10.0397 12.1504 10.177C12.0753 10.3287 11.953 10.4523 11.8017 10.5293C11.6504 10.6064 11.4781 10.6328 11.3104 10.6047Z" fill="#BFC6D0"/>
<path d="M20.5695 10.704C20.3403 10.5709 20.1258 10.4142 19.9295 10.2366C19.846 10.1262 19.8008 9.99177 19.8008 9.85361C19.8008 9.71544 19.846 9.58102 19.9295 9.47065C19.9875 9.3812 20.0545 9.29788 20.1295 9.22199C21.5895 7.77974 23.0296 6.31761 24.5096 4.8853C24.6942 4.69789 24.9458 4.59065 25.2095 4.58691C25.3388 4.61021 25.4611 4.66264 25.5668 4.74023C25.6725 4.81783 25.759 4.91849 25.8196 5.03449C25.871 5.29156 25.8322 5.55844 25.7095 5.79044C25.5832 5.9762 25.428 6.14071 25.2495 6.27781C23.9095 7.61065 22.5795 8.94349 21.2495 10.2564C21.0359 10.4244 20.8084 10.5741 20.5695 10.704Z" fill="#BFC6D0"/>
</svg>
