<svg width="32" height="33" viewBox="0 0 32 33" fill="none" xmlns="http://www.w3.org/2000/svg">
<g clip-path="url(#clip0_330_10411)">
<path d="M7.66584 32.007C6.65406 32.0019 5.65319 31.7976 4.72038 31.4057C3.78756 31.0138 2.94107 30.442 2.22924 29.7229C1.5174 29.0039 0.954173 28.1517 0.571696 27.215C0.189218 26.2783 -0.00501057 25.2754 9.82227e-05 24.2636C0.0122173 22.2323 0.827913 20.2883 2.26894 18.8565C3.70997 17.4247 5.65915 16.6216 7.69054 16.6226C8.70208 16.6253 9.70314 16.8277 10.6363 17.2181C11.5695 17.6085 12.4164 18.1793 13.1286 18.8977C13.8407 19.6161 14.4041 20.4679 14.7864 21.4045C15.1687 22.341 15.3623 23.3438 15.3563 24.3553C15.3423 26.3871 14.5264 28.3311 13.0861 29.7641C11.6457 31.1972 9.69763 32.0033 7.66584 32.007ZM11.4864 20.5771L10.8443 20.2773C10.2376 19.9774 9.56995 19.821 8.89312 19.8204C8.21628 19.8197 7.54837 19.9748 6.94102 20.2735C6.33368 20.5722 5.80319 21.0066 5.39057 21.5431C4.97795 22.0797 4.69426 22.7039 4.56144 23.3676C4.51558 23.5686 4.4415 23.6498 4.23337 23.6392C3.8806 23.6392 3.55604 23.6392 3.22443 23.6392V25.1773H4.50853C4.65434 25.9054 4.97841 26.5859 5.45174 27.1581C5.92507 27.7302 6.53287 28.176 7.22075 28.4557C7.90863 28.7353 8.65512 28.84 9.39338 28.7604C10.1316 28.6808 10.8386 28.4193 11.4511 27.9995L10.809 26.6448C9.92006 27.1528 9.02754 27.4315 8.04331 27.1387C7.05907 26.8459 6.17715 25.8934 6.16304 25.1385H8.52308V23.611H6.05368C6.14448 23.2034 6.32246 22.8202 6.5754 22.4879C6.82833 22.1556 7.15021 21.882 7.51892 21.686C7.88763 21.4899 8.29443 21.3759 8.71136 21.352C9.12828 21.3281 9.54544 21.3947 9.93417 21.5473C10.227 21.6637 10.5092 21.8013 10.8126 21.9353L11.4864 20.5771Z" fill="#60FF00"/>
<path d="M24.3168 0C26.3541 0.00932819 28.3047 0.825172 29.742 2.26905C31.1792 3.71292 31.9861 5.66727 31.9861 7.70455C31.9824 9.73808 31.1734 11.6873 29.7361 13.1259C28.2989 14.5645 26.3504 15.3753 24.3168 15.3809C23.3053 15.3777 22.3042 15.175 21.3711 14.7844C20.4379 14.3939 19.5909 13.8232 18.8786 13.1049C18.1662 12.3867 17.6025 11.535 17.2197 10.5987C16.8369 9.66233 16.6425 8.65968 16.6476 7.64811C16.6633 5.62091 17.477 3.68153 18.9125 2.25002C20.348 0.818517 22.2896 0.0101447 24.3168 0ZM26.8321 6.77676H23.3044V5.75019H26.8321V4.20152H25.0682V2.98092H23.5619V4.21916H21.798V8.32895H25.3258V9.6448H21.798V11.1758H23.5619V12.407H25.0824V11.1547H26.8462L26.8321 6.77676Z" fill="#60FF00"/>
<path d="M7.70092 0C8.71331 0.00646243 9.71449 0.212389 10.6472 0.606005C11.58 0.999621 12.426 1.57321 13.137 2.29398C13.8479 3.01475 14.4098 3.86858 14.7906 4.80664C15.1714 5.74471 15.3635 6.74862 15.3561 7.761C15.3393 9.79173 14.5196 11.7333 13.0761 13.1617C11.6325 14.5901 9.68234 15.3891 7.65154 15.3844C6.63866 15.3803 5.63658 15.1759 4.70297 14.7831C3.76936 14.3902 2.92263 13.8167 2.2115 13.0954C1.50038 12.3741 0.93889 11.5193 0.559337 10.5802C0.179783 9.64112 -0.0103353 8.63625 -9.56094e-05 7.62341C0.0212696 5.59474 0.84193 3.65637 2.28374 2.22908C3.72556 0.801801 5.67214 0.000816428 7.70092 0ZM7.70092 1.53456C6.89243 1.53038 6.09106 1.68578 5.34273 1.99186C4.5944 2.29794 3.91383 2.74867 3.34 3.31823C2.76618 3.8878 2.31038 4.56499 1.99874 5.31102C1.6871 6.05705 1.52573 6.85724 1.52388 7.66574C1.51544 9.29872 2.15581 10.8682 3.30421 12.0292C4.45261 13.1902 6.01504 13.8476 7.64801 13.8569C8.45951 13.8625 9.26408 13.7075 10.0154 13.4008C10.7667 13.0941 11.45 12.6418 12.0258 12.07C12.6016 11.4981 13.0585 10.818 13.3704 10.0688C13.6822 9.31957 13.8427 8.51606 13.8427 7.70455C13.8455 6.8953 13.6885 6.09345 13.3807 5.345C13.073 4.59654 12.6205 3.9162 12.0492 3.34299C11.478 2.76977 10.7992 2.31496 10.0518 2.00463C9.30443 1.6943 8.50313 1.53456 7.69387 1.53456H7.70092Z" fill="#60FF00"/>
<path d="M24.3166 32.007C22.2796 31.9995 20.3284 31.1861 18.8893 29.7444C17.4503 28.3027 16.6404 26.35 16.6367 24.313C16.6367 22.2752 17.4455 20.3207 18.8855 18.8788C20.3254 17.4368 22.2788 16.6254 24.3166 16.6226C26.3538 16.6254 28.3066 17.4364 29.7464 18.8775C31.1863 20.3187 31.9955 22.2723 31.9964 24.3095C31.9936 26.3471 31.1842 28.3007 29.745 29.7431C28.3059 31.1856 26.3542 31.9995 24.3166 32.007ZM24.3166 30.4724C25.1249 30.4752 25.9259 30.3186 26.6737 30.0115C27.4214 29.7044 28.1013 29.2528 28.6744 28.6827C29.2475 28.1126 29.7025 27.435 30.0135 26.6889C30.3244 25.9427 30.4852 25.1425 30.4866 24.3342C30.4903 23.5255 30.3346 22.724 30.0285 21.9754C29.7223 21.2269 29.2717 20.5461 28.7023 19.9718C28.1329 19.3975 27.4559 18.941 26.7101 18.6284C25.9642 18.3158 25.1641 18.1533 24.3554 18.1501C23.544 18.1459 22.7398 18.3021 21.9891 18.6098C21.2383 18.9176 20.5558 19.3706 19.9807 19.9431C19.4057 20.5155 18.9495 21.1959 18.6383 21.9453C18.3272 22.6946 18.1673 23.4981 18.1678 24.3095C18.1659 25.1181 18.3236 25.9192 18.6317 26.6669C18.9399 27.4145 19.3925 28.094 19.9637 28.6665C20.5349 29.2389 21.2133 29.6931 21.9603 30.003C22.7072 30.3129 23.5079 30.4724 24.3166 30.4724Z" fill="#60FF00"/>
<path d="M7.68679 5.75391L9.80342 2.9917L11.0099 3.91949L8.5405 7.12973H10.2585V8.6784H8.44173V12.2449H6.92833V8.7172H5.08686V7.16854H6.83309L4.33545 3.94419L5.5384 3.00934L7.68679 5.75391Z" fill="#60FF00"/>
<path d="M21.0251 27.8265C21.5366 26.9869 22.1505 26.2284 22.0552 25.1666H20.7358C20.7358 24.6868 20.7358 24.2388 20.7358 23.7908C20.7358 23.7343 20.8946 23.6426 20.9863 23.6355C21.3391 23.6179 21.6919 23.6355 22.0799 23.6355C22.0799 23.1875 22.0799 22.7818 22.0799 22.3797C22.0694 22.0216 22.1328 21.6652 22.266 21.3326C22.3992 21.0001 22.5995 20.6985 22.8543 20.4467C23.1091 20.1948 23.413 19.9981 23.7471 19.8688C24.0812 19.7395 24.4383 19.6804 24.7962 19.6951C25.1514 19.6833 25.5051 19.7445 25.8357 19.8748C26.1662 20.0051 26.4666 20.2018 26.7181 20.4527C26.9697 20.7036 27.1672 21.0035 27.2984 21.3337C27.4295 21.6639 27.4916 22.0175 27.4808 22.3726V23.565H25.9639C25.9639 23.1417 25.9639 22.7395 25.9639 22.3373C25.9639 21.6318 25.5018 21.2226 24.7645 21.2296C24.6128 21.2161 24.46 21.2356 24.3165 21.2865C24.173 21.3375 24.0422 21.4189 23.933 21.525C23.8239 21.6312 23.7389 21.7597 23.6839 21.9017C23.6289 22.0437 23.6052 22.1959 23.6145 22.3479C23.6145 22.7642 23.6145 23.1769 23.6145 23.632H24.9444V25.1489H23.6497L23.3499 26.3237H27.4315V27.8335L21.0251 27.8265Z" fill="#60FF00"/>
</g>
<defs>
<clipPath id="clip0_330_10411">
<rect width="32" height="32.0106" fill="white"/>
</clipPath>
</defs>
</svg>
