<svg width="32" height="33" viewBox="0 0 32 33" fill="none" xmlns="http://www.w3.org/2000/svg">
<g clip-path="url(#clip0_318_19632)">
<path d="M7.66572 32.1518C6.65394 32.1467 5.65307 31.9428 4.72026 31.5516C3.78744 31.1604 2.94095 30.5896 2.22911 29.8719C1.51728 29.1541 0.954051 28.3034 0.571574 27.3684C0.189096 26.4334 -0.00513264 25.4323 -2.38476e-05 24.4223C0.0120953 22.3946 0.827791 20.4541 2.26882 19.0249C3.70984 17.5957 5.65903 16.794 7.69041 16.7949C8.70196 16.7977 9.70302 16.9997 10.6362 17.3894C11.5694 17.7791 12.4163 18.3489 13.1285 19.066C13.8406 19.7831 14.404 20.6334 14.7863 21.5683C15.1685 22.5032 15.3622 23.5041 15.3562 24.5139C15.3422 26.542 14.5263 28.4825 13.0859 29.913C11.6456 31.3435 9.69751 32.1481 7.66572 32.1518ZM11.4862 20.7424L10.8442 20.4431C10.2374 20.1437 9.56983 19.9877 8.89299 19.987C8.21616 19.9864 7.54824 20.1411 6.9409 20.4393C6.33356 20.7375 5.80307 21.1712 5.39045 21.7067C4.97783 22.2423 4.69414 22.8654 4.56132 23.5279C4.51546 23.7286 4.44138 23.8096 4.23325 23.799C3.88047 23.799 3.55592 23.799 3.22431 23.799V25.3344H4.50841C4.65422 26.0611 4.97829 26.7405 5.45162 27.3116C5.92495 27.8827 6.53275 28.3277 7.22063 28.6069C7.90851 28.886 8.65499 28.9905 9.39326 28.911C10.1315 28.8315 10.8385 28.5706 11.451 28.1515L10.8089 26.7993C9.91994 27.3063 9.02742 27.5845 8.04319 27.2923C7.05895 27 6.17702 26.0492 6.16291 25.2956H8.52296V23.7708H6.05355C6.14436 23.364 6.32234 22.9815 6.57527 22.6498C6.82821 22.3181 7.15009 22.045 7.5188 21.8493C7.88751 21.6535 8.29431 21.5398 8.71123 21.5159C9.12816 21.492 9.54532 21.5585 9.93405 21.7108C10.2269 21.827 10.5091 21.9644 10.8125 22.0982L11.4862 20.7424Z" fill="#BFC6D0"/>
<path d="M24.3166 0.202148C26.3538 0.21146 28.3045 1.02584 29.7417 2.46714C31.179 3.90843 31.9859 5.85928 31.9859 7.89292C31.9821 9.9228 31.1732 11.8686 29.7359 13.3046C28.2986 14.7406 26.3501 15.5499 24.3166 15.5555C23.305 15.5523 22.304 15.35 21.3708 14.9601C20.4377 14.5703 19.5907 14.0006 18.8783 13.2836C18.166 12.5667 17.6023 11.7165 17.2195 10.7819C16.8366 9.84719 16.6422 8.84634 16.6473 7.83657C16.6631 5.813 17.4768 3.87709 18.9123 2.44815C20.3477 1.0192 22.2894 0.212275 24.3166 0.202148ZM26.8319 6.96678H23.3041V5.94205H26.8319V4.39615H25.068V3.17774H23.5616V4.41376H21.7978V8.5162H25.3255V9.82969H21.7978V11.358H23.5616V12.587H25.0821V11.3369H26.846L26.8319 6.96678Z" fill="#BFC6D0"/>
<path d="M7.70105 0.202148C8.71343 0.208599 9.71461 0.414157 10.6474 0.807069C11.5801 1.19998 12.4261 1.77254 13.1371 2.49202C13.848 3.21151 14.4099 4.06381 14.7907 5.00019C15.1715 5.93658 15.3637 6.9387 15.3562 7.94926C15.3394 9.97636 14.5198 11.9145 13.0762 13.3403C11.6326 14.7661 9.68246 15.5638 7.65166 15.559C6.63878 15.5549 5.63671 15.3509 4.70309 14.9588C3.76948 14.5666 2.92275 13.9941 2.21163 13.2741C1.5005 12.5541 0.939012 11.7008 0.559459 10.7634C0.179905 9.82603 -0.0102132 8.82295 2.64609e-05 7.81192C0.0213917 5.78688 0.842052 3.85197 2.28386 2.42724C3.72568 1.00252 5.67226 0.202963 7.70105 0.202148ZM7.70105 1.73397C6.89255 1.72979 6.09118 1.88492 5.34285 2.19045C4.59452 2.49597 3.91395 2.9459 3.34013 3.51445C2.7663 4.08299 2.31051 4.75897 1.99886 5.50367C1.68722 6.24836 1.52585 7.04712 1.52401 7.85418C1.51556 9.48423 2.15593 11.0509 3.30433 12.2098C4.45273 13.3687 6.01516 14.025 7.64813 14.0343C8.45963 14.0398 9.2642 13.8851 10.0155 13.579C10.7669 13.2728 11.4501 12.8213 12.0259 12.2505C12.6017 11.6797 13.0587 11.0008 13.3705 10.2529C13.6823 9.50504 13.8428 8.70298 13.8428 7.89292C13.8456 7.08511 13.6886 6.2847 13.3809 5.53758C13.0731 4.79047 12.6206 4.11134 12.0494 3.53915C11.4781 2.96696 10.7993 2.51297 10.0519 2.20319C9.30455 1.89342 8.50325 1.73396 7.694 1.73397H7.70105Z" fill="#BFC6D0"/>
<path d="M24.3166 32.1518C22.2796 32.1444 20.3284 31.3324 18.8893 29.8933C17.4503 28.4541 16.6404 26.5049 16.6367 24.4716C16.6367 22.4374 17.4455 20.4865 18.8854 19.0471C20.3254 17.6077 22.2788 16.7977 24.3166 16.7949C26.3538 16.7977 28.3066 17.6073 29.7464 19.0459C31.1863 20.4844 31.9955 22.4345 31.9964 24.4681C31.9936 26.502 31.1842 28.4521 29.745 29.892C28.3059 31.3319 26.3542 32.1444 24.3166 32.1518ZM24.3166 30.62C25.1249 30.6228 25.9259 30.4664 26.6737 30.1599C27.4214 29.8533 28.1013 29.4026 28.6744 28.8335C29.2475 28.2644 29.7025 27.5881 30.0135 26.8432C30.3244 26.0984 30.4852 25.2997 30.4866 24.4927C30.4903 23.6855 30.3346 22.8854 30.0285 22.1382C29.7223 21.3911 29.2717 20.7114 28.7023 20.1381C28.1329 19.5649 27.4559 19.1092 26.7101 18.7972C25.9642 18.4852 25.1641 18.3229 24.3554 18.3197C23.544 18.3155 22.7398 18.4715 21.9891 18.7787C21.2383 19.0858 20.5558 19.5381 19.9807 20.1095C19.4057 20.6809 18.9495 21.3601 18.6383 22.1081C18.3272 22.8561 18.1673 23.6582 18.1678 24.4681C18.1659 25.2753 18.3236 26.0749 18.6317 26.8213C18.9399 27.5676 19.3925 28.2459 19.9637 28.8173C20.5349 29.3887 21.2133 29.8421 21.9603 30.1514C22.7072 30.4608 23.5079 30.62 24.3166 30.62Z" fill="#BFC6D0"/>
<path d="M7.68691 5.94575L9.80355 3.18848L11.01 4.11461L8.54062 7.3191H10.2586V8.86501H8.44185V12.4252H6.92845V8.90374H5.08698V7.35784H6.83321L4.33557 4.13926L5.53853 3.20609L7.68691 5.94575Z" fill="#BFC6D0"/>
<path d="M21.0252 27.9789C21.5368 27.1408 22.1506 26.3837 22.0553 25.3238H20.736C20.736 24.8449 20.736 24.3976 20.736 23.9504C20.736 23.8941 20.8947 23.8025 20.9864 23.7955C21.3392 23.7779 21.692 23.7955 22.08 23.7955C22.08 23.3483 22.08 22.9433 22.08 22.5419C22.0696 22.1844 22.1329 21.8286 22.2661 21.4967C22.3993 21.1647 22.5996 20.8637 22.8544 20.6123C23.1092 20.3609 23.4131 20.1646 23.7472 20.0355C24.0813 19.9064 24.4384 19.8474 24.7964 19.8621C25.1515 19.8503 25.5052 19.9114 25.8358 20.0415C26.1663 20.1716 26.4667 20.3679 26.7183 20.6184C26.9698 20.8688 27.1673 21.1681 27.2985 21.4977C27.4297 21.8273 27.4918 22.1803 27.481 22.5348V23.725H25.9641C25.9641 23.3025 25.9641 22.901 25.9641 22.4996C25.9641 21.7953 25.5019 21.3868 24.7646 21.3939C24.6129 21.3804 24.4601 21.3998 24.3166 21.4507C24.1731 21.5016 24.0423 21.5828 23.9332 21.6888C23.824 21.7947 23.739 21.923 23.684 22.0647C23.629 22.2065 23.6054 22.3584 23.6146 22.5102C23.6146 22.9257 23.6146 23.3377 23.6146 23.792H24.9445V25.3062H23.6499L23.35 26.4788H27.4316V27.986L21.0252 27.9789Z" fill="#BFC6D0"/>
</g>
<defs>
<clipPath id="clip0_318_19632">
<rect width="32" height="31.9533" fill="white" transform="translate(0 0.202148)"/>
</clipPath>
</defs>
</svg>
