<svg width="32" height="31" viewBox="0 0 32 31" fill="none" xmlns="http://www.w3.org/2000/svg">
<path d="M1.00303 7.95482V3.91651C0.987777 3.46523 1.06572 3.01561 1.23207 2.59548C1.39841 2.17535 1.64961 1.79363 1.97013 1.47388C2.29066 1.15413 2.67369 0.903187 3.09559 0.736509C3.51749 0.56983 3.96927 0.490987 4.42301 0.504843H12.583C13.0367 0.489431 13.4887 0.567273 13.9108 0.733534C14.3328 0.899795 14.7159 1.15088 15.0359 1.47109C15.356 1.7913 15.6062 2.17374 15.7709 2.59451C15.9355 3.01528 16.0112 3.46534 15.993 3.91651C15.993 6.61203 15.993 9.2976 15.993 11.9931C16.0084 12.4474 15.9296 12.9 15.7616 13.3228C15.5935 13.7455 15.3398 14.1292 15.0162 14.4502C14.6925 14.7712 14.306 15.0225 13.8805 15.1884C13.455 15.3544 12.9997 15.4314 12.543 15.4147H4.46302C4.00238 15.4316 3.54322 15.3535 3.11442 15.1853C2.68562 15.017 2.29645 14.7623 1.97145 14.4371C1.64644 14.112 1.39263 13.7235 1.22596 13.2961C1.05929 12.8686 0.983397 12.4114 1.00303 11.9533V7.95482ZM12.633 12.0727V3.85683H4.37303V12.0727H12.633ZM25.183 3.82696C26.053 3.82696 26.923 3.82696 27.793 3.82696C28.6352 3.85238 29.4352 4.19922 30.0273 4.79552C30.6193 5.39181 30.958 6.19186 30.973 7.02979C30.973 8.75386 30.973 10.4746 30.973 12.1921C30.9577 13.0377 30.6138 13.8445 30.0135 14.4435C29.4132 15.0424 28.6031 15.3869 27.753 15.4048C26.023 15.4048 24.293 15.4048 22.563 15.4048C21.7207 15.3948 20.915 15.0609 20.3147 14.4731C19.7145 13.8853 19.3662 13.0893 19.343 12.2517C19.303 10.4945 19.303 8.73397 19.343 6.97011C19.3656 6.14531 19.7044 5.36027 20.2901 4.77591C20.8757 4.19154 21.6639 3.85205 22.493 3.82696C23.393 3.80707 24.293 3.82696 25.183 3.82696ZM27.613 12.0727V7.1591H22.683V12.0727H27.613ZM10.183 18.7369C11.053 18.7369 11.923 18.7369 12.793 18.7369C13.6352 18.7623 14.4352 19.1091 15.0273 19.7054C15.6193 20.3017 15.958 21.1018 15.973 21.9397C15.973 23.6638 15.973 25.3845 15.973 27.102C15.9527 27.945 15.6069 28.748 15.0074 29.3443C14.4079 29.9406 13.6006 30.2845 12.753 30.3047C11.0264 30.3047 9.29636 30.3047 7.56303 30.3047C6.71996 30.2972 5.9128 29.9642 5.31199 29.3759C4.71118 28.7876 4.36375 27.99 4.34303 27.1517C4.34303 25.3911 4.34303 23.6306 4.34303 21.8701C4.36812 21.047 4.70805 20.2645 5.29344 19.6822C5.87883 19.1 6.66554 18.7618 7.49302 18.7369C8.40302 18.717 9.30302 18.7369 10.183 18.7369ZM7.66304 22.059V26.9727H12.613V22.059H7.66304ZM19.313 24.5059V22.1386C19.2947 21.687 19.3706 21.2365 19.536 20.8155C19.7014 20.3946 19.9527 20.0123 20.274 19.6927C20.5953 19.3731 20.9796 19.1232 21.4029 18.9587C21.8261 18.7942 22.279 18.7186 22.733 18.7369H27.533C27.9897 18.7186 28.4452 18.7947 28.8708 18.9602C29.2965 19.1257 29.683 19.3771 30.0062 19.6986C30.3294 20.02 30.5821 20.4045 30.7485 20.8279C30.9149 21.2512 30.9914 21.7043 30.973 22.1585V26.8931C30.9898 27.3473 30.9123 27.8002 30.7455 28.2234C30.5786 28.6466 30.326 29.0311 30.0033 29.353C29.6806 29.6749 29.2948 29.9273 28.8698 30.0944C28.4448 30.2616 27.9898 30.34 27.533 30.3246H22.733C22.2832 30.3383 21.8353 30.2606 21.4167 30.0962C20.9981 29.9318 20.6175 29.6843 20.2984 29.3687C19.9792 29.0531 19.7281 28.6761 19.5604 28.2607C19.3927 27.8453 19.312 27.4002 19.323 26.9527C19.333 26.1371 19.333 25.3215 19.333 24.5059H19.313ZM22.663 22.059V26.9727H27.613V22.059H22.663Z" stroke="#BFC6D0" stroke-miterlimit="10"/>
</svg>
