<svg width="32" height="32" viewBox="0 0 32 32" fill="none" xmlns="http://www.w3.org/2000/svg">
<path d="M1.00303 8.31396V4.26123C0.987777 3.80834 1.06572 3.35711 1.23207 2.93548C1.39841 2.51385 1.64961 2.13076 1.97013 1.80987C2.29066 1.48898 2.67369 1.23714 3.09559 1.06986C3.51749 0.902588 3.96927 0.823464 4.42301 0.837369H12.583C13.0367 0.821902 13.4887 0.900022 13.9108 1.06688C14.3328 1.23373 14.7159 1.48571 15.0359 1.80707C15.356 2.12842 15.6062 2.51223 15.7709 2.9345C15.9355 3.35677 16.0112 3.80845 15.993 4.26123C15.993 6.96638 15.993 9.66154 15.993 12.3667C16.0084 12.8226 15.9296 13.2769 15.7616 13.7011C15.5935 14.1253 15.3398 14.5104 15.0162 14.8326C14.6925 15.1547 14.306 15.4069 13.8805 15.5734C13.455 15.7399 12.9997 15.8172 12.543 15.8005H4.46302C4.00238 15.8175 3.54322 15.7391 3.11442 15.5702C2.68562 15.4014 2.29645 15.1458 1.97145 14.8195C1.64644 14.4932 1.39263 14.1033 1.22596 13.6743C1.05929 13.2453 0.983397 12.7864 1.00303 12.3267V8.31396ZM12.633 12.4466V4.20134H4.37303V12.4466H12.633ZM25.183 4.17136C26.053 4.17136 26.923 4.17136 27.793 4.17136C28.6352 4.19687 29.4352 4.54495 30.0273 5.14337C30.6193 5.7418 30.958 6.5447 30.973 7.38563C30.973 9.11586 30.973 10.8428 30.973 12.5663C30.9577 13.415 30.6138 14.2247 30.0135 14.8258C29.4132 15.4269 28.6031 15.7726 27.753 15.7906C26.023 15.7906 24.293 15.7906 22.563 15.7906C21.7207 15.7806 20.915 15.4455 20.3147 14.8556C19.7145 14.2657 19.3662 13.4668 19.343 12.6262C19.303 10.8627 19.303 9.0959 19.343 7.32574C19.3656 6.49799 19.7044 5.71015 20.2901 5.12369C20.8757 4.53724 21.6639 4.19653 22.493 4.17136C23.393 4.1514 24.293 4.17136 25.183 4.17136ZM27.613 12.4466V7.5154H22.683V12.4466H27.613ZM10.183 19.1345C11.053 19.1345 11.923 19.1345 12.793 19.1345C13.6352 19.16 14.4352 19.5081 15.0273 20.1065C15.6193 20.705 15.958 21.5079 15.973 22.3488C15.973 24.079 15.973 25.8059 15.973 27.5295C15.9527 28.3756 15.6069 29.1814 15.0074 29.7799C14.4079 30.3783 13.6006 30.7235 12.753 30.7437C11.0264 30.7437 9.29636 30.7437 7.56303 30.7437C6.71996 30.7362 5.9128 30.402 5.31199 29.8116C4.71118 29.2211 4.36375 28.4208 4.34303 27.5794C4.34303 25.8126 4.34303 24.0458 4.34303 22.2789C4.36812 21.4529 4.70805 20.6676 5.29344 20.0833C5.87883 19.4989 6.66554 19.1596 7.49302 19.1345C8.40302 19.1146 9.30302 19.1345 10.183 19.1345ZM7.66304 22.4686V27.3998H12.613V22.4686H7.66304ZM19.313 24.9242V22.5485C19.2947 22.0952 19.3706 21.6431 19.536 21.2206C19.7014 20.7982 19.9527 20.4145 20.274 20.0938C20.5953 19.773 20.9796 19.5222 21.4029 19.3572C21.8261 19.1921 22.279 19.1162 22.733 19.1345H27.533C27.9897 19.1162 28.4452 19.1926 28.8708 19.3587C29.2965 19.5248 29.683 19.7771 30.0062 20.0997C30.3294 20.4222 30.5821 20.8081 30.7485 21.233C30.9149 21.6579 30.9914 22.1125 30.973 22.5684V27.3199C30.9898 27.7758 30.9123 28.2302 30.7455 28.6549C30.5786 29.0797 30.326 29.4655 30.0033 29.7886C29.6806 30.1116 29.2948 30.3649 28.8698 30.5327C28.4448 30.7004 27.9898 30.7791 27.533 30.7637H22.733C22.2832 30.7774 21.8353 30.6994 21.4167 30.5345C20.9981 30.3695 20.6175 30.1211 20.2984 29.8044C19.9792 29.4877 19.7281 29.1093 19.5604 28.6924C19.3927 28.2755 19.312 27.8289 19.323 27.3798C19.333 26.5612 19.333 25.7427 19.333 24.9242H19.313ZM22.663 22.4686V27.3998H27.613V22.4686H22.663Z" stroke="#BFC6D0" stroke-miterlimit="10"/>
</svg>
