<svg width="32" height="32" viewBox="0 0 32 32" fill="none" xmlns="http://www.w3.org/2000/svg">
<path d="M1.00303 8.49191V4.43192C0.987777 3.97821 1.06572 3.52618 1.23207 3.10379C1.39841 2.68141 1.64961 2.29763 1.97013 1.97617C2.29066 1.6547 2.67369 1.40241 3.09559 1.23483C3.51749 1.06726 3.96927 0.987994 4.42301 1.00192H12.583C13.0367 0.986429 13.4887 1.06469 13.9108 1.23184C14.3328 1.399 14.7159 1.65143 15.0359 1.97336C15.356 2.29529 15.6062 2.67978 15.7709 3.10281C15.9355 3.52584 16.0112 3.97832 15.993 4.43192C15.993 7.14192 15.993 9.84191 15.993 12.5519C16.0084 13.0087 15.9296 13.4637 15.7616 13.8887C15.5935 14.3137 15.3398 14.6995 15.0162 15.0222C14.6925 15.3449 14.306 15.5975 13.8805 15.7644C13.455 15.9312 12.9997 16.0086 12.543 15.9919H4.46302C4.00238 16.0089 3.54322 15.9303 3.11442 15.7612C2.68562 15.5921 2.29645 15.3359 1.97145 15.0091C1.64644 14.6822 1.39263 14.2916 1.22596 13.8618C1.05929 13.4321 0.983397 12.9724 1.00303 12.5119V8.49191ZM12.633 12.6319V4.37192H4.37303V12.6319H12.633ZM25.183 4.34189C26.053 4.34189 26.923 4.34189 27.793 4.34189C28.6352 4.36744 29.4352 4.71615 30.0273 5.31564C30.6193 5.91514 30.958 6.71949 30.973 7.56192C30.973 9.29525 30.973 11.0253 30.973 12.7519C30.9577 13.6021 30.6138 14.4132 30.0135 15.0154C29.4132 15.6176 28.6031 15.964 27.753 15.9819C26.023 15.9819 24.293 15.9819 22.563 15.9819C21.7207 15.9719 20.915 15.6362 20.3147 15.0453C19.7145 14.4543 19.3662 13.654 19.343 12.8119C19.303 11.0453 19.303 9.27526 19.343 7.50192C19.3656 6.67269 19.7044 5.88344 20.2901 5.29593C20.8757 4.70842 21.6639 4.36711 22.493 4.34189C23.393 4.32189 24.293 4.34189 25.183 4.34189ZM27.613 12.6319V7.69193H22.683V12.6319H27.613ZM10.183 19.3319C11.053 19.3319 11.923 19.3319 12.793 19.3319C13.6352 19.3574 14.4352 19.7061 15.0273 20.3056C15.6193 20.9051 15.958 21.7095 15.973 22.5519C15.973 24.2852 15.973 26.0152 15.973 27.7419C15.9527 28.5895 15.6069 29.3968 15.0074 29.9963C14.4079 30.5958 13.6006 30.9416 12.753 30.9619C11.0264 30.9619 9.29636 30.9619 7.56303 30.9619C6.71996 30.9544 5.9128 30.6195 5.31199 30.028C4.71118 29.4366 4.36375 28.6347 4.34303 27.7919C4.34303 26.0219 4.34303 24.2519 4.34303 22.4819C4.36812 21.6544 4.70805 20.8677 5.29344 20.2823C5.87883 19.6969 6.66554 19.357 7.49302 19.3319C8.40302 19.3119 9.30302 19.3319 10.183 19.3319ZM7.66304 22.6719V27.6119H12.613V22.6719H7.66304ZM19.313 25.1319V22.7519C19.2947 22.2979 19.3706 21.8449 19.536 21.4217C19.7014 20.9985 19.9527 20.6141 20.274 20.2928C20.5953 19.9715 20.9796 19.7203 21.4029 19.5549C21.8261 19.3895 22.279 19.3136 22.733 19.3319H27.533C27.9897 19.3136 28.4452 19.39 28.8708 19.5564C29.2965 19.7228 29.683 19.9756 30.0062 20.2987C30.3294 20.6219 30.5821 21.0085 30.7485 21.4341C30.9149 21.8598 30.9914 22.3152 30.973 22.7719V27.5319C30.9898 27.9886 30.9123 28.4439 30.7455 28.8694C30.5786 29.2948 30.326 29.6814 30.0033 30.005C29.6806 30.3287 29.2948 30.5824 28.8698 30.7505C28.4448 30.9185 27.9898 30.9973 27.533 30.9819H22.733C22.2832 30.9956 21.8353 30.9175 21.4167 30.7522C20.9981 30.587 20.6175 30.3381 20.2984 30.0208C19.9792 29.7036 19.7281 29.3245 19.5604 28.9069C19.3927 28.4893 19.312 28.0418 19.323 27.5919C19.333 26.7719 19.333 25.9519 19.333 25.1319H19.313ZM22.663 22.6719V27.6119H27.613V22.6719H22.663Z" stroke="#60FF00" stroke-miterlimit="10"/>
</svg>
