<svg width="32" height="32" viewBox="0 0 32 32" fill="none" xmlns="http://www.w3.org/2000/svg">
<g clip-path="url(#clip0_330_9886)">
<path d="M0 23.7769V2.50469C0.0172041 2.46708 0.0313588 2.42815 0.042331 2.38827C0.136347 1.72637 0.467527 1.12113 0.974302 0.685078C1.48108 0.249031 2.12896 0.0118499 2.79748 0.0176386C6.02418 -0.00587954 9.25204 -0.00587954 12.4811 0.0176386C13.1287 0.00710446 13.7587 0.227999 14.258 0.640583C14.7572 1.05317 15.0929 1.63036 15.2045 2.26833C15.3491 2.97387 15.4056 3.70411 15.5008 4.4273C15.5573 4.84357 15.6102 5.25984 15.6666 5.6867H29.012C29.4824 5.6559 29.9527 5.74723 30.3773 5.95182C30.802 6.15642 31.1665 6.46733 31.4356 6.85437C31.6666 7.27778 31.8545 7.72334 31.9965 8.18433V29.4565C31.9965 29.5059 31.9577 29.5518 31.9471 29.6011C31.8384 30.2732 31.487 30.882 30.9593 31.3121C30.5317 31.6406 30.0304 31.8598 29.4988 31.9506H13.5606C13.504 31.9298 13.4463 31.9121 13.3877 31.8977C12.9211 31.827 12.4827 31.6303 12.1196 31.3288C11.7566 31.0273 11.4827 30.6324 11.3275 30.1868C11.139 29.4874 11.0091 28.7735 10.9395 28.0525C10.8477 27.4704 10.7878 26.8848 10.7137 26.2886H2.9527C2.48757 26.3166 2.02308 26.2242 1.6041 26.0203C1.18512 25.8164 0.825815 25.5078 0.560907 25.1245C0.32785 24.6959 0.139876 24.2442 0 23.7769ZM15.91 7.54933C15.91 7.63399 15.91 7.68691 15.91 7.7363C16.2769 10.6949 16.6438 13.6535 17.0107 16.6121C17.3635 19.3848 17.6915 22.1576 18.069 24.9269C18.1054 25.1564 18.0874 25.3912 18.0163 25.6125C17.9452 25.8337 17.8231 26.0351 17.6598 26.2004C16.6015 27.4034 15.5432 28.631 14.4848 29.8516C14.4273 29.9211 14.3743 29.9941 14.3261 30.0703H28.9274C29.7846 30.0703 30.1127 29.7423 30.1127 28.8815V8.73818C30.1127 7.87742 29.7846 7.54933 28.9274 7.54933H15.8995H15.91ZM16.1076 24.3942C15.9665 23.2689 15.8289 22.1788 15.6913 21.0887C15.3268 18.1701 14.9658 15.2527 14.6083 12.3365C14.2155 9.18972 13.8228 6.04535 13.43 2.90332C13.3419 2.19778 12.9961 1.87322 12.28 1.87322H3.0162C2.19777 1.87322 1.85911 2.22599 1.85911 3.02679V23.2407C1.85911 24.0556 2.21188 24.3978 3.01267 24.3978H16.0935L16.1076 24.3942ZM12.9326 28.8039L15.1163 26.2816H12.6222L12.9326 28.8039Z" fill="#60FF00"/>
<path d="M22.1967 20.0659C21.3801 19.0814 20.7263 17.9727 20.26 16.7816C20.2353 16.7146 20.2035 16.6476 20.1824 16.577C20.0801 16.2242 20.006 15.935 19.5086 15.9103C19.3987 15.8939 19.2932 15.856 19.1982 15.7986C19.1031 15.7412 19.0204 15.6656 18.9548 15.576C18.8892 15.4864 18.842 15.3847 18.8159 15.2768C18.7899 15.1689 18.7855 15.0568 18.803 14.9472C18.8242 14.7161 18.9312 14.5013 19.103 14.3452C19.2747 14.1891 19.4987 14.1031 19.7308 14.1041C20.5422 14.1041 21.3536 14.1041 22.1649 14.1041H22.5459C22.5459 13.8077 22.5459 13.5326 22.5459 13.2539C22.5362 13.1238 22.5535 12.993 22.5966 12.8699C22.6397 12.7467 22.7077 12.6338 22.7965 12.5381C22.8852 12.4424 22.9927 12.366 23.1123 12.3138C23.2318 12.2615 23.3609 12.2345 23.4914 12.2344C23.6218 12.2368 23.7503 12.266 23.869 12.3201C23.9877 12.3743 24.094 12.4522 24.1813 12.5491C24.2686 12.646 24.3351 12.7598 24.3766 12.8835C24.4181 13.0072 24.4338 13.138 24.4227 13.268V14.1041H25.7526C26.2606 14.1041 26.7722 14.1041 27.2837 14.1041C27.5202 14.114 27.7439 14.2143 27.9086 14.3843C28.0734 14.5543 28.1666 14.781 28.1691 15.0178C28.1768 15.2553 28.0909 15.4864 27.9299 15.6612C27.769 15.8361 27.5457 15.9407 27.3084 15.9526C27.0367 15.9526 26.9556 16.0761 26.8956 16.3054C26.5018 17.5111 25.9053 18.6409 25.1318 19.6461C25.0259 19.7837 24.9201 19.9283 24.7966 20.0977L26.5146 21.5088C26.6275 21.6005 26.7439 21.6852 26.8674 21.7804C26.9691 21.8533 27.055 21.946 27.1201 22.0528C27.1851 22.1597 27.228 22.2786 27.2461 22.4024C27.2642 22.5262 27.2572 22.6524 27.2255 22.7734C27.1938 22.8945 27.138 23.0078 27.0614 23.1068C26.9846 23.2097 26.8871 23.2954 26.7753 23.3585C26.6634 23.4216 26.5397 23.4607 26.4119 23.4733C26.2841 23.4859 26.1551 23.4717 26.0331 23.4317C25.9111 23.3917 25.7987 23.3267 25.7032 23.2409C25.0894 22.7576 24.4897 22.2566 23.8865 21.7628L23.5337 21.4559L21.7134 22.941C21.5617 23.0645 21.4065 23.1915 21.2442 23.2938C21.0469 23.4355 20.8016 23.4935 20.5618 23.4552C20.3219 23.4169 20.1069 23.2853 19.9636 23.0892C19.8154 22.8972 19.7492 22.6543 19.7797 22.4136C19.8101 22.173 19.9346 21.9542 20.1259 21.8051C20.7327 21.2971 21.3536 20.8068 21.9639 20.3058C22.0203 20.2353 22.0944 20.1647 22.1967 20.0659ZM25.0189 15.9843H21.978C22.3322 16.9639 22.8459 17.8782 23.4984 18.6901C24.1496 17.8799 24.6632 16.9682 25.0189 15.9914V15.9843Z" fill="#60FF00"/>
<path d="M9.78577 14.1217H7.20347C7.00944 15.0918 6.81895 16.0584 6.62139 17.0215C6.59213 17.2452 6.48408 17.4513 6.31663 17.6025C6.14918 17.7538 5.93329 17.8405 5.70771 17.847C5.49266 17.8527 5.28233 17.7833 5.11297 17.6507C4.94361 17.518 4.82583 17.3304 4.77992 17.1203C4.75044 16.9783 4.75044 16.8318 4.77992 16.6899C5.39139 13.6325 6.00522 10.5693 6.62139 7.50015C6.64554 7.24344 6.77052 7.00679 6.96892 6.84211C7.16733 6.67744 7.42295 6.5982 7.67971 6.62175H9.30247C9.55848 6.5991 9.8131 6.67821 10.0112 6.84196C10.2093 7.00572 10.3349 7.24092 10.3608 7.49662C10.9746 10.554 11.5884 13.6113 12.2023 16.6687C12.2328 16.7928 12.2377 16.9218 12.2168 17.0479C12.1959 17.174 12.1495 17.2945 12.0806 17.402C12.0116 17.5096 11.9214 17.6021 11.8156 17.6737C11.7098 17.7453 11.5905 17.7947 11.465 17.8187C11.3416 17.841 11.2151 17.8385 11.0928 17.8114C10.9704 17.7844 10.8547 17.7332 10.7522 17.661C10.6498 17.5888 10.5628 17.4969 10.4962 17.3908C10.4296 17.2846 10.3848 17.1663 10.3643 17.0426C10.1879 16.1995 10.0115 15.3529 9.85632 14.5097C9.84574 14.3933 9.81751 14.2628 9.78577 14.1217ZM9.41183 12.2238L8.66042 8.49144L8.32528 8.50907L7.6021 12.2238H9.41183Z" fill="#60FF00"/>
</g>
<defs>
<clipPath id="clip0_330_9886">
<rect width="32" height="31.9471" fill="white"/>
</clipPath>
</defs>
</svg>
