<svg width="32" height="32" viewBox="0 0 32 32" fill="none" xmlns="http://www.w3.org/2000/svg">
<g clip-path="url(#clip0_318_19643)">
<path d="M0 23.7343V2.50021C0.0172041 2.46266 0.0313588 2.4238 0.042331 2.384C0.136347 1.72328 0.467527 1.11912 0.974302 0.683853C1.48108 0.248586 2.12896 0.0118287 2.79748 0.0176071C6.02418 -0.00586902 9.25204 -0.00586902 12.4811 0.0176071C13.1287 0.00709176 13.7587 0.227591 14.258 0.639437C14.7572 1.05128 15.0929 1.62744 15.2045 2.26427C15.3491 2.96855 15.4056 3.69749 15.5008 4.41938C15.5573 4.8349 15.6102 5.25043 15.6666 5.67652H29.012C29.4824 5.64578 29.9527 5.73695 30.3773 5.94118C30.802 6.14541 31.1665 6.45576 31.4356 6.84211C31.6666 7.26476 31.8545 7.70952 31.9965 8.16969V29.4038C31.9965 29.4531 31.9577 29.4989 31.9471 29.5482C31.8384 30.219 31.487 30.8267 30.9593 31.2561C30.5317 31.584 30.0304 31.8028 29.4988 31.8935H13.5606C13.504 31.8726 13.4463 31.855 13.3877 31.8406C12.9211 31.7701 12.4827 31.5737 12.1196 31.2727C11.7566 30.9718 11.4827 30.5776 11.3275 30.1328C11.139 29.4346 11.0091 28.722 10.9395 28.0023C10.8477 27.4213 10.7878 26.8367 10.7137 26.2416H2.9527C2.48757 26.2696 2.02308 26.1773 1.6041 25.9737C1.18512 25.7702 0.825815 25.4622 0.560907 25.0795C0.32785 24.6517 0.139876 24.2009 0 23.7343ZM15.91 7.53582C15.91 7.62034 15.91 7.67316 15.91 7.72246C16.2769 10.6758 16.6438 13.629 17.0107 16.5823C17.3635 19.3502 17.6915 22.118 18.069 24.8823C18.1054 25.1114 18.0874 25.3458 18.0163 25.5667C17.9452 25.7875 17.8231 25.9885 17.6598 26.1536C16.6015 27.3544 15.5432 28.5798 14.4848 29.7982C14.4273 29.8675 14.3743 29.9405 14.3261 30.0165H28.9274C29.7846 30.0165 30.1127 29.689 30.1127 28.8298V8.72255C30.1127 7.86333 29.7846 7.53582 28.9274 7.53582H15.8995H15.91ZM16.1076 24.3506C15.9665 23.2273 15.8289 22.1391 15.6913 21.051C15.3268 18.1376 14.9658 15.2254 14.6083 12.3144C14.2155 9.17329 13.8228 6.03453 13.43 2.89813C13.3419 2.19384 12.9961 1.86987 12.28 1.86987H3.0162C2.19777 1.86987 1.85911 2.22201 1.85911 3.02137V23.1991C1.85911 24.0125 2.21188 24.3541 3.01267 24.3541H16.0935L16.1076 24.3506ZM12.9326 28.7524L15.1163 26.2345H12.6222L12.9326 28.7524Z" fill="#BFC6D0"/>
<path d="M22.1964 20.0299C21.3799 19.0472 20.7261 17.9404 20.2597 16.7515C20.235 16.6846 20.2033 16.6177 20.1821 16.5473C20.0798 16.1951 20.0057 15.9064 19.5083 15.8817C19.3985 15.8654 19.293 15.8275 19.1979 15.7702C19.1029 15.713 19.0202 15.6375 18.9545 15.548C18.8889 15.4586 18.8417 15.3571 18.8157 15.2494C18.7896 15.1416 18.7852 15.0298 18.8028 14.9204C18.824 14.6897 18.931 14.4753 19.1027 14.3195C19.2745 14.1637 19.4985 14.0778 19.7306 14.0788C20.5419 14.0788 21.3533 14.0788 22.1647 14.0788H22.5457C22.5457 13.783 22.5457 13.5083 22.5457 13.2301C22.536 13.1002 22.5532 12.9697 22.5963 12.8468C22.6394 12.7238 22.7075 12.6111 22.7962 12.5156C22.8849 12.4201 22.9924 12.3438 23.112 12.2917C23.2316 12.2395 23.3606 12.2125 23.4911 12.2124C23.6215 12.2148 23.7501 12.244 23.8688 12.298C23.9874 12.352 24.0937 12.4299 24.181 12.5266C24.2684 12.6233 24.3348 12.7369 24.3764 12.8604C24.4179 12.9838 24.4336 13.1144 24.4224 13.2442V14.0788H25.7524C26.2604 14.0788 26.7719 14.0788 27.2834 14.0788C27.52 14.0887 27.7436 14.1888 27.9084 14.3585C28.0731 14.5282 28.1664 14.7545 28.1689 14.9908C28.1766 15.2279 28.0907 15.4586 27.9297 15.6331C27.7687 15.8077 27.5455 15.9121 27.3081 15.924C27.0365 15.924 26.9553 16.0472 26.8954 16.2761C26.5015 17.4797 25.905 18.6074 25.1315 19.6109C25.0257 19.7482 24.9198 19.8926 24.7964 20.0616L26.5144 21.4702C26.6273 21.5618 26.7437 21.6463 26.8672 21.7414C26.9688 21.8141 27.0548 21.9066 27.1198 22.0133C27.1849 22.12 27.2278 22.2387 27.2459 22.3623C27.264 22.4858 27.257 22.6118 27.2252 22.7326C27.1935 22.8534 27.1377 22.9666 27.0612 23.0654C26.9843 23.1681 26.8869 23.2536 26.775 23.3166C26.6632 23.3796 26.5394 23.4186 26.4117 23.4312C26.2839 23.4438 26.1549 23.4297 26.0328 23.3897C25.9108 23.3498 25.7985 23.2849 25.703 23.1992C25.0892 22.7168 24.4895 22.2167 23.8862 21.7237L23.5335 21.4174L21.7131 22.8999C21.5615 23.0231 21.4062 23.1499 21.244 23.252C21.0467 23.3935 20.8014 23.4514 20.5615 23.4131C20.3217 23.3749 20.1067 23.2436 19.9634 23.0478C19.8152 22.8562 19.749 22.6137 19.7794 22.3735C19.8098 22.1332 19.9343 21.9148 20.1257 21.766C20.7324 21.2589 21.3533 20.7694 21.9636 20.2694C22.0201 20.199 22.0941 20.1285 22.1964 20.0299ZM25.0186 15.9557H21.9777C22.3319 16.9335 22.8457 17.8461 23.4982 18.6566C24.1493 17.8478 24.663 16.9377 25.0186 15.9627V15.9557Z" fill="#BFC6D0"/>
<path d="M9.78589 14.0961H7.20359C7.00956 15.0644 6.81907 16.0293 6.62152 16.9907C6.59225 17.214 6.4842 17.4197 6.31675 17.5707C6.1493 17.7217 5.93341 17.8082 5.70784 17.8147C5.49278 17.8204 5.28245 17.7511 5.11309 17.6187C4.94373 17.4863 4.82595 17.2991 4.78004 17.0893C4.75056 16.9476 4.75056 16.8013 4.78004 16.6596C5.39152 13.6078 6.00534 10.55 6.62152 7.48636C6.64566 7.23012 6.77064 6.99389 6.96905 6.82951C7.16745 6.66513 7.42307 6.58602 7.67983 6.60954H9.30259C9.5586 6.58693 9.81322 6.6659 10.0113 6.82936C10.2094 6.99282 10.335 7.2276 10.3609 7.48284C10.9747 10.5347 11.5886 13.5866 12.2024 16.6385C12.2329 16.7624 12.2379 16.8912 12.2169 17.017C12.196 17.1429 12.1496 17.2632 12.0807 17.3706C12.0117 17.4779 11.9216 17.5702 11.8157 17.6417C11.7099 17.7132 11.5906 17.7625 11.4651 17.7865C11.3418 17.8087 11.2152 17.8062 11.0929 17.7792C10.9705 17.7522 10.8548 17.7011 10.7524 17.629C10.6499 17.557 10.5629 17.4653 10.4963 17.3593C10.4297 17.2533 10.3849 17.1352 10.3644 17.0118C10.188 16.1702 10.0117 15.325 9.85645 14.4834C9.84586 14.3672 9.81764 14.2369 9.78589 14.0961ZM9.41195 12.2015L8.66054 8.47588L8.3254 8.49348L7.60222 12.2015H9.41195Z" fill="#BFC6D0"/>
</g>
<defs>
<clipPath id="clip0_318_19643">
<rect width="32" height="31.8899" fill="white"/>
</clipPath>
</defs>
</svg>
