<svg width="33" height="33" viewBox="0 0 33 33" fill="none" xmlns="http://www.w3.org/2000/svg">
<path d="M9.06 0.573242H25.25C25.41 0.702548 25.6 0.802008 25.74 0.94126L31.62 6.77989C31.7458 6.89416 31.8449 7.03437 31.9106 7.19071C31.9762 7.34705 32.0067 7.51574 32 7.68503C32 15.2179 32 22.7475 32 30.2737C32.0359 30.5627 32.0049 30.8559 31.9094 31.1311C31.8139 31.4064 31.6564 31.6562 31.449 31.8616C31.2415 32.067 30.9896 32.2225 30.7125 32.3162C30.4353 32.4099 30.1403 32.4393 29.85 32.4023H9.63998C9.35043 32.4377 9.05655 32.407 8.7807 32.3126C8.50485 32.2181 8.25426 32.0624 8.04797 31.8572C7.84168 31.652 7.68513 31.4028 7.59018 31.1284C7.49523 30.854 7.46439 30.5617 7.5 30.2737V17.9797H7C5.58012 18.0029 4.18789 17.5878 3.01492 16.7916C1.84196 15.9954 0.945887 14.8572 0.449982 13.5336C0.249982 12.9667 0.15 12.3599 0 11.7631V10.5198C0 10.4104 0.0499768 10.301 0.0699768 10.1916C0.309336 8.50839 1.17 6.97406 2.48431 5.88741C3.79863 4.80076 5.47251 4.23958 7.17999 4.31316H7.5V2.52276C7.49437 2.05113 7.65739 1.59287 7.95999 1.22972C8.25998 0.915674 8.64024 0.688739 9.06 0.573242ZM24.5 1.83645H24.33C19.39 1.83645 14.4433 1.83645 9.48999 1.83645C9.38834 1.82087 9.28441 1.82953 9.18677 1.86167C9.08913 1.89381 9.00055 1.94855 8.92831 2.02137C8.85608 2.09419 8.80227 2.18302 8.77127 2.28056C8.74027 2.3781 8.73298 2.48155 8.75 2.58244C8.75 3.15934 8.75 3.7263 8.75 4.29325C8.75 4.51207 8.80999 4.60162 9.01999 4.6613C10.5337 5.13996 11.8305 6.13207 12.684 7.46454C13.5374 8.79701 13.8935 10.3852 13.69 11.9521C13.5634 13.2421 13.0592 14.4668 12.2398 15.4746C11.4204 16.4823 10.3218 17.2289 9.07999 17.6217C8.97834 17.6411 8.88784 17.698 8.82663 17.781C8.76542 17.864 8.73805 17.967 8.75 18.0693C8.75 22.1341 8.75 26.2056 8.75 30.2836C8.75 30.9799 8.93998 31.1689 9.63998 31.1689H29.86C30.55 31.1689 30.75 30.9799 30.75 30.2836V8.03317H25.31C24.72 8.03317 24.5 7.8243 24.5 7.2275V1.83645ZM6.25 5.61616C4.81864 5.76474 3.50002 6.45668 2.56866 7.54795C1.63731 8.63922 1.16499 10.0457 1.25 11.4747C1.29705 12.211 1.48969 12.9309 1.81686 13.5931C2.14404 14.2553 2.59934 14.8468 3.15668 15.3337C3.71402 15.8207 4.36245 16.1934 5.06485 16.4307C5.76725 16.668 6.50981 16.7651 7.25 16.7165C8.55714 16.6272 9.78949 16.0776 10.726 15.1661C11.6625 14.2547 12.2418 13.0412 12.36 11.7433H7.01999C6.40999 11.7433 6.19998 11.5344 6.19998 10.9177V5.59628L6.25 5.61616ZM7.51999 5.61616V10.4999H12.43C12.2955 9.25049 11.735 8.0845 10.8417 7.19596C9.94839 6.30743 8.77614 5.74991 7.51999 5.61616ZM25.76 6.76997H29.68L25.76 2.8709V6.76997Z" fill="#BFC6D0"/>
<path d="M25.8602 20.0191C25.6872 19.7563 25.5835 19.4544 25.5588 19.1413C25.534 18.8282 25.5889 18.514 25.7184 18.2275C25.848 17.9411 26.048 17.6917 26.2999 17.5025C26.5519 17.3132 26.8477 17.1901 27.1602 17.1445C27.512 17.0806 27.875 17.1255 28.2004 17.2731C28.5258 17.4207 28.798 17.6639 28.9802 17.97C29.1972 18.2661 29.3141 18.6232 29.3141 18.9896C29.3141 19.356 29.1972 19.713 28.9802 20.0091C28.7855 20.3074 28.5081 20.5431 28.1816 20.6879C27.855 20.8326 27.4933 20.8802 27.1402 20.8247C27.0067 20.8054 26.8708 20.8374 26.7602 20.9142C25.3802 22.3664 24.0068 23.8286 22.6402 25.3007C22.6145 25.3322 22.5911 25.3654 22.5702 25.4001C22.7942 25.7365 22.9009 26.1368 22.8738 26.5394C22.8467 26.9419 22.6873 27.3245 22.4202 27.6282C22.1453 27.9653 21.7577 28.1929 21.3282 28.2696C20.8987 28.3463 20.4558 28.2669 20.0802 28.0459C19.704 27.8398 19.4128 27.5086 19.2574 27.1103C19.102 26.7121 19.0923 26.2722 19.2302 25.8676C19.2742 25.7818 19.2892 25.6842 19.273 25.5892C19.2568 25.4942 19.2102 25.407 19.1402 25.3405C18.6002 24.6939 18.0702 24.0375 17.5502 23.3511C17.5066 23.2862 17.4434 23.2368 17.3697 23.21C17.296 23.1832 17.2156 23.1804 17.1402 23.2019C16.7704 23.2218 16.3999 23.2218 16.0302 23.2019C15.9083 23.1917 15.787 23.2272 15.6902 23.3014C15.0202 24.0076 14.3602 24.7238 13.6902 25.4499C13.6553 25.5038 13.632 25.5644 13.6217 25.6277C13.6114 25.691 13.6142 25.7557 13.6302 25.8179C13.7716 26.2292 13.763 26.6769 13.6057 27.0825C13.4485 27.4881 13.1527 27.8257 12.7702 28.036C12.3956 28.2449 11.9599 28.3183 11.537 28.244C11.1141 28.1697 10.7301 27.9521 10.4502 27.6282C10.1622 27.2945 10.0039 26.8693 10.0039 26.4296C10.0039 25.9899 10.1622 25.5647 10.4502 25.2311C10.6829 24.9412 10.9996 24.7294 11.3573 24.6245C11.715 24.5195 12.0965 24.5264 12.4502 24.6442C12.5283 24.6796 12.6167 24.686 12.6992 24.6623C12.7817 24.6386 12.853 24.5863 12.9002 24.5149C13.5302 23.8186 14.1802 23.1224 14.8302 22.4361C14.8833 22.3905 14.9199 22.3288 14.9344 22.2605C14.9488 22.1922 14.9403 22.1211 14.9102 22.0581C14.7782 21.7276 14.7506 21.365 14.831 21.0185C14.9114 20.672 15.096 20.3581 15.3602 20.1185C15.6029 19.8648 15.9167 19.6894 16.2607 19.615C16.6048 19.5405 16.9634 19.5704 17.2902 19.7008C17.6273 19.8066 17.9243 20.0115 18.1421 20.2884C18.3598 20.5654 18.4882 20.9015 18.5102 21.2524C18.5004 21.5365 18.4669 21.8193 18.4102 22.0979C18.3878 22.2206 18.409 22.3471 18.4702 22.456C19.0202 23.1522 19.5802 23.8485 20.1502 24.5348C20.2471 24.609 20.3683 24.6445 20.4902 24.6343C20.745 24.595 21.0023 24.575 21.2602 24.5746C21.3678 24.599 21.4802 24.5913 21.5834 24.5523C21.6866 24.5134 21.7759 24.445 21.8402 24.3558C23.1102 22.9831 24.3902 21.6304 25.6702 20.2677L25.8602 20.0191ZM28.0402 19.0244C28.0405 18.8622 27.9786 18.7061 27.8671 18.5878C27.7556 18.4695 27.6029 18.3979 27.4402 18.3878C27.2762 18.39 27.1192 18.4537 27.0005 18.5663C26.8818 18.6788 26.8102 18.8318 26.8002 18.9945C26.8025 19.1566 26.867 19.3117 26.9803 19.4281C27.0937 19.5446 27.2474 19.6136 27.4102 19.6212C27.5782 19.6212 27.7395 19.5555 27.8592 19.4383C27.979 19.321 28.0475 19.1616 28.0502 18.9945L28.0402 19.0244ZM16.6202 22.1078C16.7829 22.1002 16.9367 22.0312 17.05 21.9148C17.1634 21.7983 17.2278 21.6432 17.2302 21.4812C17.225 21.3185 17.1563 21.1642 17.0387 21.0509C16.9211 20.9377 16.7638 20.8744 16.6002 20.8745C16.4382 20.8843 16.2858 20.9541 16.1729 21.07C16.06 21.186 15.9949 21.3398 15.9902 21.5011C16.0052 21.6594 16.0791 21.8064 16.1976 21.9131C16.316 22.0199 16.4703 22.0787 16.6302 22.078L16.6202 22.1078ZM11.8602 27.0811C12.023 27.0761 12.1778 27.0096 12.293 26.895C12.4082 26.7804 12.4751 26.6264 12.4802 26.4644C12.4751 26.3024 12.4082 26.1485 12.293 26.0339C12.1778 25.9193 12.023 25.8527 11.8602 25.8477C11.6973 25.8527 11.5425 25.9193 11.4273 26.0339C11.3121 26.1485 11.2452 26.3024 11.2402 26.4644C11.2546 26.6203 11.3253 26.7657 11.4394 26.8737C11.5534 26.9816 11.7029 27.0447 11.8602 27.0513V27.0811ZM20.9802 25.8477C20.8174 25.8553 20.6637 25.9244 20.5503 26.0408C20.437 26.1573 20.3725 26.3123 20.3702 26.4744C20.3754 26.6371 20.444 26.7914 20.5616 26.9047C20.6792 27.0179 20.8365 27.0812 21.0002 27.0811C21.1621 27.0712 21.3145 27.0015 21.4274 26.8855C21.5403 26.7696 21.6055 26.6158 21.6102 26.4545C21.6102 26.289 21.5456 26.1301 21.4298 26.0112C21.3141 25.8924 21.1564 25.8231 20.9902 25.8179L20.9802 25.8477Z" fill="#BFC6D0"/>
<path d="M22.8605 11.7625H18.3905C18.2874 11.7724 18.1836 11.7724 18.0805 11.7625C17.93 11.7438 17.7911 11.6725 17.6886 11.5614C17.586 11.4503 17.5264 11.3065 17.5205 11.1558C17.5241 11.0033 17.5826 10.8572 17.6854 10.744C17.7882 10.6308 17.9284 10.5581 18.0805 10.5391H27.4505C27.9605 10.5391 28.2605 10.7778 28.2605 11.1657C28.2605 11.5536 27.9605 11.7824 27.4505 11.7824L22.8605 11.7625Z" fill="#BFC6D0"/>
<path d="M22.8609 13.0057H27.6409C27.7939 13.0227 27.9353 13.0948 28.0385 13.2085C28.1417 13.3221 28.1994 13.4693 28.2009 13.6224C28.197 13.7738 28.1382 13.9186 28.0352 14.0302C27.9323 14.1417 27.7922 14.2124 27.6409 14.2292C27.5378 14.2391 27.434 14.2391 27.3309 14.2292H18.2709C17.7609 14.2292 17.4609 14.0004 17.4609 13.6125C17.4609 13.2246 17.7609 12.9858 18.2709 12.9858L22.8609 13.0057Z" fill="#BFC6D0"/>
<path d="M19.3107 5.54638C18.3107 5.54638 17.2407 5.54638 16.2107 5.54638C16.078 5.56599 15.9433 5.56599 15.8107 5.54638C15.6822 5.51236 15.5694 5.43553 15.4912 5.3287C15.4129 5.22188 15.3739 5.09155 15.3806 4.95953C15.379 4.82954 15.4216 4.70283 15.5015 4.59992C15.5813 4.49701 15.6938 4.42394 15.8206 4.39257C15.9432 4.37305 16.0681 4.37305 16.1906 4.39257C18.2706 4.39257 20.3606 4.39257 22.4406 4.39257C22.5437 4.38271 22.6476 4.38271 22.7507 4.39257C22.8875 4.42355 23.01 4.49909 23.0988 4.60721C23.1875 4.71532 23.2375 4.84982 23.2407 4.98937C23.2387 5.13079 23.188 5.26728 23.097 5.37593C23.006 5.48459 22.8802 5.55881 22.7407 5.58617C22.6275 5.59607 22.5138 5.59607 22.4007 5.58617L19.3107 5.54638Z" fill="#BFC6D0"/>
<path d="M19.3409 6.79039H22.4309C22.5629 6.76359 22.6989 6.76359 22.8309 6.79039C22.953 6.82581 23.0598 6.90089 23.1341 7.00363C23.2084 7.10637 23.246 7.23089 23.2409 7.35735C23.246 7.48381 23.2084 7.60833 23.1341 7.71107C23.0598 7.81382 22.953 7.88889 22.8309 7.92431C22.6883 7.94499 22.5435 7.94499 22.4009 7.92431H16.2209C16.1476 7.9293 16.0741 7.9293 16.0009 7.92431C15.838 7.91933 15.6832 7.85274 15.568 7.73815C15.4528 7.62356 15.3859 7.46958 15.3809 7.3076C15.3809 7.14404 15.4462 6.98721 15.5625 6.87156C15.6787 6.75591 15.8365 6.69092 16.0009 6.69092C16.4109 6.69092 16.8309 6.69092 17.2509 6.69092L19.3409 6.79039Z" fill="#BFC6D0"/>
<path d="M15.63 10.5293C15.7936 10.5345 15.9487 10.6027 16.0626 10.7197C16.1764 10.8367 16.2401 10.9931 16.24 11.1559C16.2324 11.3178 16.1629 11.4707 16.0459 11.5835C15.9288 11.6962 15.7729 11.7603 15.61 11.7627C15.448 11.7528 15.2956 11.683 15.1827 11.5671C15.0699 11.4511 15.0047 11.2974 15 11.136C15.0076 10.9741 15.077 10.8212 15.1941 10.7085C15.3112 10.5957 15.467 10.5317 15.63 10.5293Z" fill="#BFC6D0"/>
<path d="M15.64 13.0161C15.8018 13.0238 15.9545 13.0932 16.0662 13.2099C16.1779 13.3266 16.2402 13.4816 16.24 13.6428C16.2324 13.8047 16.1629 13.9576 16.0459 14.0703C15.9288 14.183 15.7729 14.2471 15.61 14.2495C15.4463 14.2395 15.2925 14.1683 15.1794 14.0502C15.0663 13.9322 15.0022 13.776 15 13.6129C15.0102 13.4511 15.0821 13.2992 15.201 13.1883C15.32 13.0774 15.477 13.0158 15.64 13.0161Z" fill="#BFC6D0"/>
<path d="M6.73074 15.4926C5.62738 15.4487 4.58097 14.9937 3.79922 14.2179C3.01748 13.4422 2.55754 12.4025 2.51074 11.3051C2.51074 10.8376 2.73076 10.5293 3.12076 10.5293C3.51076 10.5293 3.73076 10.7978 3.75076 11.2653C3.78728 12.045 4.11506 12.7831 4.66995 13.335C5.22484 13.887 5.96688 14.213 6.75076 14.2493C7.21076 14.2493 7.49073 14.5278 7.47073 14.8958C7.45073 15.2638 7.16074 15.5026 6.70074 15.4926H6.73074Z" fill="#BFC6D0"/>
</svg>
