<svg width="33" height="33" viewBox="0 0 33 33" fill="none" xmlns="http://www.w3.org/2000/svg">
<path d="M9.06 0H25.25C25.41 0.13 25.6 0.229995 25.74 0.369995L31.62 6.23999C31.7458 6.35487 31.8449 6.49584 31.9106 6.65302C31.9762 6.81019 32.0067 6.97979 32 7.14999C32 14.7233 32 22.2933 32 29.86C32.0359 30.1505 32.0049 30.4454 31.9094 30.722C31.8139 30.9987 31.6564 31.25 31.449 31.4565C31.2415 31.6629 30.9896 31.8193 30.7125 31.9135C30.4353 32.0077 30.1403 32.0373 29.85 32H9.63998C9.35043 32.0356 9.05655 32.0048 8.7807 31.9098C8.50485 31.8149 8.25426 31.6583 8.04797 31.452C7.84168 31.2457 7.68513 30.9951 7.59018 30.7193C7.49523 30.4434 7.46439 30.1496 7.5 29.86V17.5H7C5.58012 17.5233 4.18789 17.1059 3.01492 16.3055C1.84196 15.505 0.945887 14.3607 0.449982 13.03C0.249982 12.46 0.15 11.85 0 11.25V10C0 9.89 0.0499768 9.78001 0.0699768 9.67001C0.309336 7.97778 1.17 6.4352 2.48431 5.34271C3.79863 4.25022 5.47251 3.68603 7.17999 3.76001H7.5V1.95999C7.49437 1.48583 7.65739 1.0251 7.95999 0.660004C8.25998 0.344271 8.64024 0.116117 9.06 0ZM24.5 1.26999H24.33C19.39 1.26999 14.4433 1.26999 9.48999 1.26999C9.38834 1.25433 9.28441 1.26303 9.18677 1.29535C9.08913 1.32767 9.00055 1.38269 8.92831 1.4559C8.85608 1.52911 8.80227 1.61843 8.77127 1.71649C8.74027 1.81456 8.73298 1.91856 8.75 2.01999C8.75 2.59999 8.75 3.16999 8.75 3.73999C8.75 3.95999 8.80999 4.05002 9.01999 4.11002C10.5337 4.59125 11.8305 5.58869 12.684 6.92831C13.5374 8.26794 13.8935 9.86469 13.69 11.44C13.5634 12.7369 13.0592 13.9682 12.2398 14.9814C11.4204 15.9945 10.3218 16.7451 9.07999 17.14C8.97834 17.1595 8.88784 17.2167 8.82663 17.3002C8.76542 17.3837 8.73805 17.4872 8.75 17.59C8.75 21.6767 8.75 25.77 8.75 29.87C8.75 30.57 8.93998 30.76 9.63998 30.76H29.86C30.55 30.76 30.75 30.57 30.75 29.87V7.5H25.31C24.72 7.5 24.5 7.29 24.5 6.69V1.26999ZM6.25 5.07001C4.81864 5.21939 3.50002 5.91504 2.56866 7.01218C1.63731 8.10931 1.16499 9.52337 1.25 10.96C1.29705 11.7003 1.48969 12.4241 1.81686 13.0898C2.14404 13.7556 2.59934 14.3503 3.15668 14.8398C3.71402 15.3293 4.36245 15.7041 5.06485 15.9426C5.76725 16.1812 6.50981 16.2789 7.25 16.23C8.55714 16.1402 9.78949 15.5876 10.726 14.6713C11.6625 13.7549 12.2418 12.5349 12.36 11.23H7.01999C6.40999 11.23 6.19998 11.02 6.19998 10.4V5.05002L6.25 5.07001ZM7.51999 5.07001V9.98001H12.43C12.2955 8.72386 11.735 7.5516 10.8417 6.65829C9.9484 5.76498 8.77614 5.20447 7.51999 5.07001ZM25.76 6.23001H29.68L25.76 2.31V6.23001Z" fill="#60FF00"/>
<path d="M25.8602 19.5503C25.6872 19.2861 25.5835 18.9826 25.5588 18.6678C25.534 18.353 25.5889 18.0371 25.7184 17.7491C25.848 17.4612 26.048 17.2105 26.2999 17.0202C26.5519 16.8299 26.8477 16.7061 27.1602 16.6603C27.512 16.5961 27.875 16.6412 28.2004 16.7896C28.5258 16.938 28.798 17.1825 28.9802 17.4903C29.1972 17.7879 29.3141 18.1469 29.3141 18.5153C29.3141 18.8837 29.1972 19.2426 28.9802 19.5403C28.7855 19.8401 28.5081 20.0771 28.1816 20.2227C27.855 20.3682 27.4933 20.416 27.1402 20.3603C27.0067 20.3408 26.8708 20.373 26.7602 20.4503C25.3802 21.9103 24.0068 23.3803 22.6402 24.8603C22.6145 24.8919 22.5911 24.9253 22.5702 24.9603C22.7942 25.2984 22.9009 25.7009 22.8738 26.1056C22.8467 26.5104 22.6873 26.895 22.4202 27.2003C22.1453 27.5392 21.7577 27.768 21.3282 27.8451C20.8987 27.9222 20.4558 27.8424 20.0802 27.6203C19.704 27.413 19.4128 27.08 19.2574 26.6796C19.102 26.2793 19.0923 25.837 19.2302 25.4303C19.2742 25.344 19.2892 25.2458 19.273 25.1503C19.2568 25.0549 19.2102 24.9671 19.1402 24.9003C18.6002 24.2503 18.0702 23.5903 17.5502 22.9003C17.5066 22.835 17.4434 22.7853 17.3697 22.7583C17.296 22.7314 17.2156 22.7286 17.1402 22.7503C16.7704 22.7702 16.3999 22.7702 16.0302 22.7503C15.9083 22.74 15.787 22.7757 15.6902 22.8503C15.0202 23.5603 14.3602 24.2803 13.6902 25.0103C13.6553 25.0645 13.632 25.1254 13.6217 25.189C13.6114 25.2527 13.6142 25.3178 13.6302 25.3803C13.7716 25.7938 13.763 26.2439 13.6057 26.6517C13.4485 27.0595 13.1527 27.3988 12.7702 27.6103C12.3956 27.8203 11.9599 27.8941 11.537 27.8194C11.1141 27.7447 10.7301 27.5259 10.4502 27.2003C10.1622 26.8648 10.0039 26.4373 10.0039 25.9953C10.0039 25.5532 10.1622 25.1257 10.4502 24.7903C10.6829 24.4989 10.9996 24.286 11.3573 24.1804C11.715 24.0749 12.0965 24.0818 12.4502 24.2003C12.5283 24.2359 12.6167 24.2423 12.6992 24.2185C12.7817 24.1946 12.853 24.1421 12.9002 24.0703C13.5302 23.3703 14.1802 22.6703 14.8302 21.9803C14.8833 21.9345 14.9199 21.8725 14.9344 21.8038C14.9488 21.7351 14.9403 21.6636 14.9102 21.6003C14.7782 21.268 14.7506 20.9034 14.831 20.5551C14.9114 20.2067 15.096 19.8911 15.3602 19.6503C15.6029 19.3952 15.9167 19.2189 16.2607 19.144C16.6048 19.0691 16.9634 19.0992 17.2902 19.2303C17.6273 19.3366 17.9243 19.5426 18.1421 19.8211C18.3598 20.0996 18.4882 20.4374 18.5102 20.7903C18.5004 21.0759 18.4669 21.3602 18.4102 21.6403C18.3878 21.7636 18.409 21.8909 18.4702 22.0003C19.0202 22.7003 19.5802 23.4003 20.1502 24.0903C20.2471 24.1648 20.3683 24.2005 20.4902 24.1903C20.745 24.1508 21.0023 24.1307 21.2602 24.1303C21.3678 24.1548 21.4802 24.147 21.5834 24.1079C21.6866 24.0688 21.7759 24 21.8402 23.9103C23.1102 22.5303 24.3902 21.1703 25.6702 19.8003L25.8602 19.5503ZM28.0402 18.5503C28.0405 18.3872 27.9786 18.2302 27.8671 18.1113C27.7556 17.9923 27.6029 17.9205 27.4402 17.9103C27.2762 17.9125 27.1192 17.9766 27.0005 18.0897C26.8818 18.2028 26.8102 18.3566 26.8002 18.5202C26.8025 18.6832 26.867 18.8391 26.9803 18.9562C27.0937 19.0732 27.2474 19.1426 27.4102 19.1503C27.5782 19.1503 27.7395 19.0842 27.8592 18.9664C27.979 18.8485 28.0475 18.6882 28.0502 18.5202L28.0402 18.5503ZM16.6202 21.6503C16.7829 21.6426 16.9367 21.5732 17.05 21.4562C17.1634 21.3391 17.2278 21.1832 17.2302 21.0202C17.225 20.8567 17.1563 20.7015 17.0387 20.5877C16.9211 20.4738 16.7638 20.4102 16.6002 20.4103C16.4382 20.4202 16.2858 20.4903 16.1729 20.6069C16.06 20.7235 15.9949 20.8781 15.9902 21.0403C16.0052 21.1994 16.0791 21.3472 16.1976 21.4545C16.316 21.5618 16.4703 21.621 16.6302 21.6203L16.6202 21.6503ZM11.8602 26.6503C12.023 26.6452 12.1778 26.5783 12.293 26.4631C12.4082 26.3479 12.4751 26.1931 12.4802 26.0303C12.4751 25.8674 12.4082 25.7126 12.293 25.5974C12.1778 25.4822 12.023 25.4153 11.8602 25.4103C11.6973 25.4153 11.5425 25.4822 11.4273 25.5974C11.3121 25.7126 11.2452 25.8674 11.2402 26.0303C11.2546 26.187 11.3253 26.3332 11.4394 26.4417C11.5534 26.5502 11.7029 26.6137 11.8602 26.6203V26.6503ZM20.9802 25.4103C20.8174 25.4179 20.6637 25.4873 20.5503 25.6044C20.437 25.7215 20.3725 25.8773 20.3702 26.0403C20.3754 26.2039 20.444 26.359 20.5616 26.4729C20.6792 26.5867 20.8365 26.6503 21.0002 26.6503C21.1621 26.6403 21.3145 26.5702 21.4274 26.4536C21.5403 26.3371 21.6055 26.1825 21.6102 26.0202C21.6102 25.8539 21.5456 25.6941 21.4298 25.5746C21.3141 25.4552 21.1564 25.3855 20.9902 25.3803L20.9802 25.4103Z" fill="#60FF00"/>
<path d="M22.8605 11.2495H18.3905C18.2874 11.2595 18.1836 11.2595 18.0805 11.2495C17.93 11.2307 17.7911 11.1591 17.6886 11.0473C17.586 10.9356 17.5264 10.7911 17.5205 10.6396C17.5241 10.4863 17.5826 10.3393 17.6854 10.2256C17.7882 10.1118 17.9284 10.0387 18.0805 10.0195H27.4505C27.9605 10.0195 28.2605 10.2595 28.2605 10.6495C28.2605 11.0395 27.9605 11.2695 27.4505 11.2695L22.8605 11.2495Z" fill="#60FF00"/>
<path d="M22.8609 12.4995H27.6409C27.7939 12.5166 27.9353 12.5891 28.0385 12.7033C28.1417 12.8175 28.1994 12.9656 28.2009 13.1195C28.197 13.2717 28.1382 13.4173 28.0352 13.5294C27.9323 13.6416 27.7922 13.7126 27.6409 13.7295C27.5378 13.7395 27.434 13.7395 27.3309 13.7295H18.2709C17.7609 13.7295 17.4609 13.4995 17.4609 13.1095C17.4609 12.7195 17.7609 12.4795 18.2709 12.4795L22.8609 12.4995Z" fill="#60FF00"/>
<path d="M19.3107 4.99992C18.3107 4.99992 17.2407 4.99992 16.2107 4.99992C16.078 5.01963 15.9433 5.01963 15.8107 4.99992C15.6822 4.96572 15.5694 4.88847 15.4912 4.78108C15.4129 4.67368 15.3739 4.54264 15.3806 4.40992C15.379 4.27923 15.4216 4.15184 15.5015 4.04838C15.5813 3.94492 15.6938 3.87145 15.8206 3.83991C15.9432 3.82029 16.0681 3.82029 16.1906 3.83991C18.2706 3.83991 20.3606 3.83991 22.4406 3.83991C22.5437 3.83 22.6476 3.83 22.7507 3.83991C22.8875 3.87106 23.01 3.94701 23.0988 4.0557C23.1875 4.1644 23.2375 4.29962 23.2407 4.43992C23.2388 4.5821 23.188 4.71932 23.097 4.82856C23.006 4.9378 22.8802 5.01242 22.7407 5.03993C22.6275 5.04988 22.5138 5.04988 22.4007 5.03993L19.3107 4.99992Z" fill="#60FF00"/>
<path d="M19.3409 6.2504H22.4309C22.5629 6.22346 22.6989 6.22346 22.8309 6.2504C22.953 6.28601 23.0598 6.36149 23.1341 6.46478C23.2084 6.56808 23.246 6.69326 23.2409 6.8204C23.246 6.94754 23.2084 7.07273 23.1341 7.17603C23.0598 7.27932 22.953 7.3548 22.8309 7.39041C22.6883 7.4112 22.5435 7.4112 22.4009 7.39041H16.2209C16.1476 7.39543 16.0741 7.39543 16.0009 7.39041C15.838 7.3854 15.6832 7.31845 15.568 7.20325C15.4528 7.08804 15.3859 6.93323 15.3809 6.77039C15.3809 6.60595 15.4462 6.44827 15.5625 6.332C15.6787 6.21573 15.8365 6.15039 16.0009 6.15039C16.4109 6.15039 16.8309 6.15039 17.2509 6.15039L19.3409 6.2504Z" fill="#60FF00"/>
<path d="M15.63 10.0098C15.7936 10.015 15.9487 10.0836 16.0626 10.2012C16.1764 10.3188 16.2401 10.4761 16.24 10.6398C16.2324 10.8025 16.1629 10.9563 16.0459 11.0696C15.9288 11.183 15.7729 11.2474 15.61 11.2498C15.448 11.2398 15.2956 11.1697 15.1827 11.0531C15.0699 10.9366 15.0047 10.782 15 10.6198C15.0076 10.457 15.077 10.3033 15.1941 10.1899C15.3112 10.0766 15.467 10.0121 15.63 10.0098Z" fill="#60FF00"/>
<path d="M15.64 12.5098C15.8018 12.5175 15.9545 12.5872 16.0662 12.7046C16.1779 12.8219 16.2402 12.9778 16.24 13.1398C16.2324 13.3025 16.1629 13.4563 16.0459 13.5696C15.9288 13.683 15.7729 13.7474 15.61 13.7498C15.4463 13.7397 15.2925 13.6681 15.1794 13.5494C15.0663 13.4308 15.0022 13.2737 15 13.1098C15.0102 12.9471 15.0821 12.7944 15.201 12.6829C15.32 12.5714 15.477 12.5094 15.64 12.5098Z" fill="#60FF00"/>
<path d="M6.73074 14.9998C5.62738 14.9556 4.58097 14.4981 3.79922 13.7182C3.01748 12.9383 2.55754 11.893 2.51074 10.7898C2.51074 10.3198 2.73076 10.0098 3.12076 10.0098C3.51076 10.0098 3.73076 10.2798 3.75076 10.7498C3.78728 11.5336 4.11506 12.2757 4.66995 12.8306C5.22484 13.3855 5.96688 13.7132 6.75076 13.7498C7.21076 13.7498 7.49073 14.0297 7.47073 14.3997C7.45073 14.7697 7.16074 15.0098 6.70074 14.9998H6.73074Z" fill="#60FF00"/>
</svg>
