<svg width="28" height="28" viewBox="0 0 28 28" fill="none" xmlns="http://www.w3.org/2000/svg">
<path d="M0.000535991 3.52917C0.217116 3.05784 0.593444 2.91804 1.10033 2.92263C2.47508 2.94478 3.84983 2.93026 5.19078 2.93026C5.38202 2.52386 5.52717 2.12128 5.74606 1.76301C6.63081 0.316923 8.40032 -0.330874 10.0469 0.164904C10.8263 0.406873 11.5058 0.893712 11.9834 1.55237C12.461 2.21102 12.711 3.00597 12.6958 3.81793C12.6544 5.72007 11.275 7.24484 9.32347 7.47401C7.52094 7.68485 5.81902 6.5451 5.31366 4.77129C5.26067 4.5849 5.17005 4.56198 5.00646 4.56274C3.70083 4.56809 2.40135 4.54976 1.09957 4.57344C0.590371 4.58261 0.21635 4.43823 0.00207352 3.96231L0.000535991 3.52917ZM11.0484 3.73849C11.0431 2.58421 10.0692 1.62168 8.92103 1.63391C8.64317 1.6364 8.36852 1.69332 8.11277 1.80139C7.85702 1.90947 7.62517 2.0666 7.43048 2.2638C7.23578 2.46101 7.08204 2.69443 6.97804 2.95073C6.87404 3.20703 6.82182 3.4812 6.82435 3.75758C6.82405 4.03404 6.87857 4.30785 6.9848 4.56332C7.09102 4.8188 7.24686 5.05093 7.4434 5.24642C7.63994 5.4419 7.87332 5.59691 8.13016 5.70257C8.38701 5.80823 8.66229 5.86246 8.94023 5.86216C9.50163 5.85453 10.0375 5.6275 10.432 5.23012C10.8264 4.83274 11.0479 4.29694 11.0484 3.73849Z" fill="#D6D6D6"/>
<path d="M0.000768765 23.3252C0.215045 22.8508 0.589067 22.7026 1.09903 22.7141C2.09131 22.7408 3.08512 22.7141 4.07816 22.7255C4.26018 22.7255 4.33929 22.6858 4.39535 22.4964C4.63741 21.6669 5.15965 20.9458 5.87402 20.4547C6.58838 19.9636 7.45115 19.7325 8.31684 19.8005C9.17244 19.8744 9.97751 20.2349 10.6004 20.823C11.2233 21.4111 11.6272 22.192 11.746 23.038C12.0194 24.9798 10.71 26.8071 8.75077 27.2181C6.86452 27.6146 4.93757 26.4542 4.39535 24.588C4.34005 24.397 4.26325 24.3534 4.0797 24.355C3.08665 24.3634 2.09284 24.3412 1.10057 24.3664C0.592909 24.3794 0.217348 24.232 0 23.7599L0.000768765 23.3252ZM10.1255 23.5544C10.127 22.996 9.90684 22.4597 9.51294 22.0619C9.11904 21.6641 8.58322 21.437 8.02192 21.4299C7.46549 21.4291 6.93108 21.6461 6.53426 22.0341C6.13744 22.4221 5.91011 22.9498 5.90143 23.5032C5.89552 23.7819 5.94522 24.0591 6.04764 24.3186C6.15006 24.5781 6.30318 24.8149 6.49814 25.0152C6.6931 25.2155 6.92604 25.3754 7.1835 25.4856C7.44096 25.5959 7.71783 25.6543 7.99811 25.6574C9.14706 25.6704 10.1178 24.7109 10.1255 23.5529V23.5544Z" fill="#D6D6D6"/>
<path d="M0.000535991 13.4272C0.216348 12.9544 0.591908 12.8161 1.10033 12.8199C5.34592 12.8329 9.59151 12.8268 13.8371 12.8291C13.9921 12.8232 14.1471 12.8387 14.2979 12.8749C14.4792 12.9264 14.6363 13.0401 14.7412 13.1959C14.8461 13.3518 14.8921 13.5396 14.8708 13.7259C14.8518 13.9124 14.7688 14.0867 14.6358 14.2196C14.5028 14.3524 14.3279 14.4357 14.1405 14.4554C14.0316 14.4635 13.9224 14.4658 13.8133 14.4623C9.57615 14.4623 5.33978 14.4562 1.1034 14.47C0.594979 14.47 0.219419 14.3348 0.00360636 13.8627L0.000535991 13.4272Z" fill="#D6D6D6"/>
<path d="M25.5025 14.4623C24.9749 14.4623 24.4465 14.4692 23.9181 14.4585C23.7376 14.4585 23.6562 14.4944 23.6001 14.6877C23.3583 15.5164 22.8367 16.237 22.1234 16.7282C21.41 17.2193 20.5483 17.451 19.6833 17.3843C18.8233 17.3103 18.0144 16.9472 17.3898 16.3546C16.7652 15.7621 16.3622 14.9756 16.2472 14.1247C16.128 13.1839 16.3703 12.2329 16.9256 11.4622C17.481 10.6914 18.3084 10.1575 19.2424 9.96748C21.1271 9.57025 23.0572 10.7238 23.6001 12.5892C23.6608 12.7962 23.7538 12.8314 23.9381 12.8299C25.0041 12.8232 26.0696 12.8232 27.1346 12.8299C27.7605 12.8337 28.1614 13.3944 27.9371 13.9429C27.795 14.2889 27.5209 14.4593 27.1468 14.4608C26.5954 14.4639 26.0493 14.4616 25.5025 14.4623ZM22.0933 13.6488C22.0964 13.0906 21.8765 12.554 21.4821 12.157C21.0877 11.7599 20.5509 11.5348 19.9897 11.5312C19.4284 11.5346 18.891 11.7579 18.4941 12.1527C18.0972 12.5475 17.8726 13.082 17.8692 13.6404C17.87 14.1987 18.0921 14.7342 18.4874 15.1307C18.8827 15.5271 19.4192 15.7525 19.9805 15.7579C20.2585 15.7574 20.5336 15.7025 20.7902 15.5962C21.0468 15.4899 21.2799 15.3344 21.4761 15.1386C21.6723 14.9427 21.8277 14.7104 21.9337 14.4547C22.0396 14.1991 22.0938 13.9253 22.0933 13.6488Z" fill="#D6D6D6"/>
<path d="M20.5835 22.724C22.7519 22.724 24.9197 22.724 27.0871 22.724C27.7391 22.724 28.1508 23.2634 27.9319 23.8256C27.8801 23.9721 27.786 24.1002 27.6614 24.1938C27.5368 24.2874 27.3873 24.3424 27.2314 24.3519C27.1405 24.3591 27.0492 24.3609 26.958 24.3573H14.1491C14.0669 24.3573 13.9847 24.3573 13.9033 24.3573C13.6916 24.3468 13.4921 24.2552 13.3468 24.1017C13.2015 23.9482 13.1215 23.7446 13.1238 23.5338C13.123 23.3224 13.2063 23.1194 13.3555 22.9689C13.5047 22.8185 13.7077 22.7329 13.9202 22.7309C14.5845 22.7179 15.2496 22.7256 15.917 22.7256L20.5835 22.724Z" fill="#D6D6D6"/>
<path d="M21.0272 4.56585C19.0043 4.56585 16.9818 4.56585 14.9599 4.56585C14.4146 4.56585 14.0575 4.24578 14.0498 3.76528C14.0431 3.55868 14.1162 3.35738 14.254 3.20267C14.3918 3.04797 14.5839 2.95162 14.7909 2.93338C14.8817 2.92675 14.9727 2.92471 15.0636 2.92727H26.9578C27.6137 2.92727 27.9931 3.22672 27.9947 3.74388C27.9962 4.26105 27.6168 4.56203 26.9617 4.5628L21.0272 4.56585Z" fill="#D6D6D6"/>
</svg>
