<svg width="28" height="28" viewBox="0 0 28 28" fill="none" xmlns="http://www.w3.org/2000/svg">
<path d="M0.000535991 3.54813C0.217116 3.07426 0.593444 2.93372 1.10033 2.93832C2.47508 2.9606 3.84983 2.94601 5.19078 2.94601C5.38202 2.53742 5.52717 2.13268 5.74606 1.77248C6.63081 0.318625 8.40032 -0.332652 10.0469 0.16579C10.8263 0.409059 11.5058 0.898513 11.9834 1.56071C12.461 2.2229 12.711 3.02212 12.6958 3.83844C12.6544 5.7508 11.275 7.28376 9.32347 7.51416C7.52094 7.72613 5.81902 6.58025 5.31366 4.79692C5.26067 4.60953 5.17005 4.58649 5.00646 4.58725C3.70083 4.59263 2.40135 4.5742 1.09957 4.59801C0.590371 4.60722 0.21635 4.46207 0.00207352 3.98359L0.000535991 3.54813ZM11.0484 3.75857C11.0431 2.5981 10.0692 1.63039 8.92103 1.64268C8.64317 1.64519 8.36852 1.70241 8.11277 1.81107C7.85702 1.91973 7.62517 2.0777 7.43048 2.27596C7.23578 2.47423 7.08204 2.7089 6.97804 2.96658C6.87404 3.22426 6.82182 3.4999 6.82435 3.77777C6.82405 4.05571 6.87857 4.33099 6.9848 4.58784C7.09102 4.84468 7.24686 5.07806 7.4434 5.2746C7.63994 5.47114 7.87332 5.62698 8.13016 5.7332C8.38701 5.83943 8.66229 5.89395 8.94023 5.89365C9.50163 5.88598 10.0375 5.65773 10.432 5.25822C10.8264 4.8587 11.0479 4.32002 11.0484 3.75857Z" fill="#60FF00"/>
<path d="M0.000768765 23.4505C0.215045 22.9736 0.589067 22.8246 1.09903 22.8361C2.09131 22.863 3.08512 22.8361 4.07816 22.8476C4.26018 22.8476 4.33929 22.8077 4.39535 22.6172C4.63741 21.7832 5.15965 21.0583 5.87402 20.5645C6.58838 20.0708 7.45115 19.8385 8.31684 19.9069C9.17244 19.9812 9.97751 20.3436 10.6004 20.9348C11.2233 21.5261 11.6272 22.3112 11.746 23.1617C12.0194 25.114 10.71 26.9511 8.75077 27.3643C6.86452 27.7629 4.93757 26.5963 4.39535 24.72C4.34005 24.528 4.26325 24.4843 4.0797 24.4858C3.08665 24.4942 2.09284 24.472 1.10057 24.4973C0.592909 24.5104 0.217348 24.3621 0 23.8875L0.000768765 23.4505ZM10.1255 23.6809C10.127 23.1196 9.90684 22.5803 9.51294 22.1804C9.11904 21.7805 8.58322 21.5521 8.02192 21.5451C7.46549 21.5442 6.93108 21.7624 6.53426 22.1524C6.13744 22.5425 5.91011 23.0731 5.90143 23.6295C5.89552 23.9097 5.94522 24.1883 6.04764 24.4492C6.15006 24.7102 6.30318 24.9482 6.49814 25.1496C6.6931 25.351 6.92604 25.5117 7.1835 25.6225C7.44096 25.7334 7.71783 25.7921 7.99811 25.7953C9.14706 25.8083 10.1178 24.8437 10.1255 23.6794V23.6809Z" fill="#60FF00"/>
<path d="M0.000535991 13.4993C0.216348 13.0239 0.591908 12.8849 1.10033 12.8888C5.34592 12.9018 9.59151 12.8957 13.8371 12.898C13.9921 12.8921 14.1471 12.9076 14.2979 12.9441C14.4792 12.9958 14.6363 13.1101 14.7412 13.2668C14.8461 13.4235 14.8921 13.6123 14.8708 13.7996C14.8518 13.9872 14.7688 14.1624 14.6358 14.296C14.5028 14.4295 14.3279 14.5133 14.1405 14.5331C14.0316 14.5412 13.9224 14.5435 13.8133 14.54C9.57615 14.54 5.33978 14.5339 1.1034 14.5477C0.594979 14.5477 0.219419 14.4117 0.00360636 13.9371L0.000535991 13.4993Z" fill="#60FF00"/>
<path d="M25.5025 14.54C24.9749 14.54 24.4465 14.5469 23.9181 14.5362C23.7376 14.5362 23.6562 14.5723 23.6001 14.7666C23.3583 15.5998 22.8367 16.3242 22.1234 16.818C21.41 17.3118 20.5483 17.5447 19.6833 17.4777C18.8233 17.4033 18.0144 17.0382 17.3898 16.4425C16.7652 15.8468 16.3622 15.056 16.2472 14.2006C16.128 13.2547 16.3703 12.2986 16.9256 11.5237C17.481 10.7488 18.3084 10.2121 19.2424 10.021C21.1271 9.62165 23.0572 10.7814 23.6001 12.6569C23.6608 12.865 23.7538 12.9003 23.9381 12.8988C25.0041 12.8921 26.0696 12.8921 27.1346 12.8988C27.7605 12.9026 28.1614 13.4663 27.9371 14.0178C27.795 14.3657 27.5209 14.537 27.1468 14.5385C26.5954 14.5416 26.0493 14.5393 25.5025 14.54ZM22.0933 13.7221C22.0964 13.1609 21.8765 12.6215 21.4821 12.2223C21.0877 11.8231 20.5509 11.5968 19.9897 11.5931C19.4284 11.5966 18.891 11.8211 18.4941 12.218C18.0972 12.6149 17.8726 13.1523 17.8692 13.7136C17.87 14.275 18.0921 14.8134 18.4874 15.2119C18.8827 15.6105 19.4192 15.8371 19.9805 15.8426C20.2585 15.8421 20.5336 15.7868 20.7902 15.68C21.0468 15.5732 21.2799 15.4168 21.4761 15.2199C21.6723 15.023 21.8277 14.7894 21.9337 14.5324C22.0396 14.2754 22.0938 14.0001 22.0933 13.7221Z" fill="#60FF00"/>
<path d="M20.5835 22.8461C22.7519 22.8461 24.9197 22.8461 27.0871 22.8461C27.7391 22.8461 28.1508 23.3883 27.9319 23.9536C27.8801 24.1009 27.786 24.2296 27.6614 24.3237C27.5368 24.4179 27.3873 24.4732 27.2314 24.4827C27.1405 24.4899 27.0492 24.4917 26.958 24.4881H14.1491C14.0669 24.4881 13.9847 24.4881 13.9033 24.4881C13.6916 24.4776 13.4921 24.3855 13.3468 24.2312C13.2015 24.0768 13.1215 23.8722 13.1238 23.6602C13.123 23.4477 13.2063 23.2436 13.3555 23.0923C13.5047 22.9411 13.7077 22.855 13.9202 22.853C14.5845 22.84 15.2496 22.8476 15.917 22.8476L20.5835 22.8461Z" fill="#60FF00"/>
<path d="M21.0272 4.59038C19.0043 4.59038 16.9818 4.59038 14.9599 4.59038C14.4146 4.59038 14.0575 4.26858 14.0498 3.7855C14.0431 3.5778 14.1162 3.37541 14.254 3.21988C14.3918 3.06435 14.5839 2.96747 14.7909 2.94913C14.8817 2.94247 14.9727 2.94042 15.0636 2.94299H26.9578C27.6137 2.94299 27.9931 3.24405 27.9947 3.76399C27.9962 4.28394 27.6168 4.58654 26.9617 4.58731L21.0272 4.59038Z" fill="#60FF00"/>
</svg>
