<svg width="33" height="33" viewBox="0 0 33 33" fill="none" xmlns="http://www.w3.org/2000/svg">
<path d="M21.5057 7.34143H24.3757C24.5001 7.33102 24.6242 7.36548 24.7252 7.43853C24.8261 7.51159 24.8973 7.61834 24.9257 7.73929C25.2057 8.51512 25.5157 9.29097 25.7757 10.0867C25.8657 10.3553 25.9957 10.4646 26.2757 10.4348C26.4389 10.4248 26.6025 10.4248 26.7657 10.4348V8.00783C26.7577 7.93799 26.7657 7.86727 26.789 7.80091C26.8123 7.73455 26.8504 7.67428 26.9004 7.62458C26.9503 7.57487 27.0109 7.537 27.0777 7.51381C27.1444 7.49062 27.2155 7.4827 27.2857 7.49062H29.9257C30.2857 7.49062 30.4557 7.66965 30.4557 8.03767C30.4557 8.81351 30.4557 9.58934 30.4557 10.4348H31.3857C31.8457 10.4348 32.0057 10.594 32.0057 11.0515V24.3302C32.0057 24.8175 31.8657 24.9468 31.3357 24.9468H21.4157V29.8107C21.4411 30.1132 21.4003 30.4176 21.296 30.7029C21.1917 30.9882 21.0265 31.2476 20.8116 31.4631C20.5968 31.6787 20.3375 31.8454 20.0516 31.9516C19.7657 32.0579 19.46 32.1012 19.1557 32.0785H2.2557C1.95399 32.0993 1.65132 32.0553 1.36819 31.9496C1.08506 31.8438 0.828094 31.6788 0.614712 31.4656C0.401331 31.2524 0.236509 30.996 0.131436 30.714C0.0263627 30.4319 -0.0165188 30.1306 0.00570352 29.8306V2.42782C-0.0116356 2.1355 0.0333104 1.84281 0.1376 1.56897C0.241891 1.29513 0.403163 1.04629 0.610867 0.838762C0.818571 0.631229 1.06802 0.469689 1.34286 0.364715C1.6177 0.259742 1.91175 0.213717 2.20572 0.229638H19.2557C19.5555 0.216871 19.8546 0.26636 20.1341 0.374945C20.4135 0.48353 20.6672 0.648829 20.8788 0.860314C21.0905 1.0718 21.2556 1.32483 21.3635 1.60327C21.4714 1.88172 21.5199 2.17945 21.5057 2.47754V7.34143ZM20.5057 24.9071H10.5057C9.8857 24.9071 9.77572 24.7877 9.77572 24.181V12.7026C9.77572 12.1456 9.77572 11.5886 9.77572 11.0316C9.77572 10.4746 9.91572 10.4348 10.3657 10.4348H10.8157V9.38047C10.8157 8.88314 10.9657 8.73394 11.4657 8.73394H14.6557C15.1757 8.73394 15.3157 8.88314 15.3157 9.4103C15.3157 9.74849 15.3157 10.0867 15.3157 10.405C15.8657 10.405 15.8657 10.405 16.0257 9.98722C16.2957 9.25118 16.5657 8.52505 16.8257 7.78901C16.8548 7.64658 16.9369 7.52033 17.0556 7.4355C17.1742 7.35067 17.3207 7.31352 17.4657 7.33147H20.3957V5.21285H0.985714V27.0953H20.4657L20.5057 24.9071ZM16.5057 17.2184C16.5057 17.0891 16.5557 16.9797 16.5757 16.8802C16.7835 15.8933 17.3283 15.0083 18.1176 14.3755C18.9069 13.7428 19.892 13.4012 20.9057 13.4088C21.9228 13.4189 22.9044 13.7823 23.6805 14.4362C24.4566 15.0901 24.9784 15.9934 25.1557 16.9896C25.2057 17.2283 25.3157 17.2383 25.5057 17.2383H30.6357H30.9057V11.4891H25.7557C25.1957 11.4891 25.1457 11.4891 24.9457 10.9122C24.6557 10.1364 24.3557 9.36057 24.0657 8.5748C24.0511 8.50358 24.0101 8.44046 23.9508 8.39804C23.8914 8.35563 23.8182 8.33707 23.7457 8.34604C21.7957 8.34604 19.8357 8.34604 17.8857 8.34604C17.8064 8.3344 17.7256 8.3538 17.6603 8.40017C17.595 8.44654 17.5504 8.51628 17.5357 8.59471C17.2557 9.38049 16.9657 10.1563 16.6857 10.9421C16.5257 11.3797 16.4457 11.4394 15.9857 11.4394H10.7457V17.2383L16.5057 17.2184ZM10.7757 23.9423H30.9957V18.213H30.8457H25.4957C25.2757 18.213 25.2557 18.3224 25.2157 18.5015C25.0738 19.3415 24.6783 20.1188 24.0817 20.7299C23.4851 21.3411 22.7157 21.7572 21.8757 21.9231C21.0447 22.1323 20.1695 22.0855 19.3659 21.7889C18.5623 21.4923 17.8682 20.9598 17.3757 20.262C16.9354 19.6798 16.653 18.9948 16.5557 18.2727H10.7757V23.9423ZM0.995694 28.0999V29.6715C0.995694 30.6661 1.39572 31.0739 2.39572 31.0739H19.3957C19.6438 31.0621 19.8798 30.964 20.0625 30.7967C20.2453 30.6295 20.3632 30.4038 20.3957 30.1589C20.3957 29.4825 20.3957 28.7962 20.3957 28.0999H0.995694ZM0.995694 4.22815H20.3757C20.3757 3.53189 20.3757 2.84557 20.3757 2.1692C20.3463 1.96793 20.2556 1.7805 20.1157 1.63211C19.9898 1.49647 19.8339 1.39172 19.6604 1.32613C19.4869 1.26055 19.3004 1.23591 19.1157 1.25413H2.04571C1.78591 1.27055 1.54104 1.38062 1.35696 1.56372C1.17288 1.74681 1.06222 1.99038 1.04571 2.24879C0.975712 2.84558 1.0057 3.51199 1.0057 4.18835L0.995694 4.22815ZM20.9357 14.3935C20.4936 14.3896 20.0551 14.4725 19.6453 14.6374C19.2355 14.8024 18.8624 15.0462 18.5475 15.3548C18.2326 15.6634 17.982 16.0308 17.8101 16.436C17.6381 16.8411 17.5483 17.276 17.5457 17.7157C17.5483 18.6013 17.9032 19.4498 18.5327 20.076C19.1623 20.7022 20.0154 21.0551 20.9057 21.0578C21.7907 21.0551 22.6387 20.7043 23.2645 20.0818C23.8903 19.4593 24.2431 18.6159 24.2457 17.7356C24.2563 17.2969 24.179 16.8606 24.0182 16.452C23.8573 16.0435 23.6163 15.6709 23.309 15.356C23.0018 15.0412 22.6346 14.7904 22.2288 14.6183C21.823 14.4462 21.3868 14.3563 20.9457 14.3538L20.9357 14.3935ZM27.7657 10.4149H29.4357V8.51512H27.7657V10.4149ZM11.8757 10.4149H14.3157V9.75844H11.8557C11.8557 9.91759 11.8557 10.0568 11.8557 10.1961C11.8557 10.3353 11.8757 10.3254 11.8857 10.4149H11.8757Z" fill="#BFC6D0"/>
<path d="M28.6357 13.4186C28.8289 13.4087 29.0225 13.4087 29.2157 13.4186C29.2776 13.4222 29.3382 13.4384 29.3935 13.4664C29.4488 13.4943 29.4977 13.5333 29.5372 13.581C29.5766 13.6286 29.6057 13.6838 29.6227 13.7432C29.6396 13.8025 29.6441 13.8648 29.6357 13.9259C29.6398 13.985 29.6317 14.0443 29.6121 14.1003C29.5924 14.1562 29.5616 14.2075 29.5213 14.2512C29.4811 14.295 29.4324 14.3301 29.3782 14.3545C29.3239 14.379 29.2653 14.3922 29.2057 14.3934C28.823 14.4232 28.4385 14.4232 28.0557 14.3934C27.9918 14.3909 27.929 14.3757 27.871 14.3486C27.8131 14.3216 27.7612 14.2834 27.7183 14.2361C27.6754 14.1888 27.6425 14.1335 27.6215 14.0734C27.6004 14.0133 27.5916 13.9496 27.5957 13.8861C27.5944 13.8239 27.6055 13.762 27.6286 13.7042C27.6516 13.6463 27.686 13.5936 27.7298 13.5491C27.7736 13.5046 27.8258 13.4693 27.8835 13.4452C27.9412 13.4211 28.0031 13.4087 28.0657 13.4087H28.6357V13.4186Z" fill="#BFC6D0"/>
<path d="M13.3256 14.4035C13.1457 14.4134 12.9654 14.4134 12.7855 14.4035C12.7226 14.4049 12.66 14.3934 12.6017 14.3698C12.5433 14.3462 12.4905 14.3109 12.4464 14.2661C12.4024 14.2214 12.368 14.1681 12.3455 14.1096C12.323 14.0511 12.3128 13.9886 12.3155 13.926C12.3069 13.8624 12.3122 13.7978 12.3309 13.7364C12.3497 13.675 12.3814 13.6183 12.4241 13.5702C12.4668 13.5221 12.5194 13.4836 12.5783 13.4575C12.6372 13.4314 12.7011 13.4182 12.7656 13.4187C13.142 13.3988 13.5192 13.3988 13.8956 13.4187C13.96 13.4211 14.0233 13.4366 14.0815 13.4644C14.1396 13.4921 14.1914 13.5315 14.2337 13.58C14.2759 13.6285 14.3076 13.6852 14.3268 13.7464C14.3461 13.8076 14.3524 13.8722 14.3455 13.936C14.3484 13.9981 14.3382 14.0602 14.3156 14.1182C14.293 14.1762 14.2584 14.2288 14.2142 14.2728C14.17 14.3168 14.117 14.3511 14.0587 14.3736C14.0004 14.3961 13.938 14.4063 13.8755 14.4035C13.6923 14.4135 13.5087 14.4135 13.3256 14.4035Z" fill="#BFC6D0"/>
<path d="M10.7357 30.0692H9.38565C9.31362 30.076 9.24096 30.0681 9.17212 30.046C9.10328 30.0238 9.03972 29.9878 8.98538 29.9403C8.93104 29.8928 8.88705 29.8347 8.85614 29.7696C8.82523 29.7045 8.80807 29.6339 8.80566 29.5619C8.80566 29.2735 9.00566 29.0845 9.36566 29.0845H12.0956C12.4656 29.0845 12.6656 29.2834 12.6556 29.6017C12.6456 29.92 12.4557 30.0692 12.0857 30.0692H10.7357Z" fill="#BFC6D0"/>
<path d="M10.7057 3.20345H9.35565C9.00565 3.20345 8.80566 3.01448 8.80566 2.71608C8.80566 2.41768 9.00565 2.2287 9.35565 2.21875H12.0857C12.4457 2.21875 12.6656 2.42762 12.6556 2.73596C12.6456 3.0443 12.4557 3.20345 12.0857 3.20345H10.7057Z" fill="#BFC6D0"/>
<path d="M20.8063 15.7563C21.1663 15.7563 21.3963 15.9254 21.4063 16.2238C21.4163 16.5222 21.2463 16.6913 20.8763 16.741C20.64 16.759 20.4178 16.8599 20.2493 17.0257C20.0808 17.1914 19.977 17.4113 19.9563 17.6462C19.9096 18.0374 19.7296 18.2165 19.4163 18.1833C19.1063 18.1833 18.9563 17.9545 18.9663 17.5666C18.9952 17.0925 19.199 16.6457 19.5385 16.3117C19.878 15.9777 20.3294 15.78 20.8063 15.7563Z" fill="#BFC6D0"/>
</svg>
