<svg width="33" height="33" viewBox="0 0 33 33" fill="none" xmlns="http://www.w3.org/2000/svg">
<path d="M21.5057 7.15309H24.3757C24.5001 7.14261 24.6242 7.17727 24.7252 7.25071C24.8261 7.32415 24.8973 7.43148 24.9257 7.55308C25.2057 8.33308 25.5157 9.1131 25.7757 9.9131C25.8657 10.1831 25.9957 10.2931 26.2757 10.2631C26.4389 10.2531 26.6025 10.2531 26.7657 10.2631V7.82307C26.7577 7.75285 26.7657 7.68175 26.789 7.61503C26.8123 7.54832 26.8504 7.48773 26.9004 7.43775C26.9503 7.38778 27.0109 7.34971 27.0777 7.3264C27.1444 7.30308 27.2155 7.29511 27.2857 7.30308H29.9257C30.2857 7.30308 30.4557 7.48307 30.4557 7.85307C30.4557 8.63307 30.4557 9.41307 30.4557 10.2631H31.3857C31.8457 10.2631 32.0057 10.4231 32.0057 10.8831V24.2331C32.0057 24.7231 31.8657 24.8531 31.3357 24.8531H21.4157V29.7431C21.4411 30.0472 21.4003 30.3532 21.296 30.64C21.1917 30.9268 21.0265 31.1876 20.8116 31.4044C20.5968 31.6211 20.3375 31.7887 20.0516 31.8955C19.7657 32.0023 19.46 32.0458 19.1557 32.0231H2.2557C1.95399 32.044 1.65132 31.9997 1.36819 31.8934C1.08506 31.7871 0.828094 31.6211 0.614712 31.4068C0.401331 31.1925 0.236509 30.9348 0.131436 30.6512C0.0263627 30.3676 -0.0165188 30.0647 0.00570352 29.7631V2.21308C-0.0116356 1.91919 0.0333104 1.62493 0.1376 1.34962C0.241891 1.0743 0.403163 0.824136 0.610867 0.615488C0.818571 0.40684 1.06802 0.244433 1.34286 0.138895C1.6177 0.0333574 1.91175 -0.0129143 2.20572 0.00309172H19.2557C19.5555 -0.00974392 19.8546 0.0400114 20.1341 0.149179C20.4135 0.258347 20.6672 0.424535 20.8788 0.637155C21.0905 0.849776 21.2556 1.10416 21.3635 1.3841C21.4714 1.66405 21.5199 1.96338 21.5057 2.26307V7.15309ZM20.5057 24.8131H10.5057C9.8857 24.8131 9.77572 24.6931 9.77572 24.0831V12.5431C9.77572 11.9831 9.77572 11.4231 9.77572 10.8631C9.77572 10.3031 9.91572 10.2631 10.3657 10.2631H10.8157V9.20307C10.8157 8.70307 10.9657 8.55308 11.4657 8.55308H14.6557C15.1757 8.55308 15.3157 8.70307 15.3157 9.23307C15.3157 9.57307 15.3157 9.91307 15.3157 10.2331C15.8657 10.2331 15.8657 10.2331 16.0257 9.81309C16.2957 9.07309 16.5657 8.34307 16.8257 7.60307C16.8548 7.45987 16.9369 7.33294 17.0556 7.24766C17.1742 7.16238 17.3207 7.12503 17.4657 7.14308H20.3957V5.01307H0.985714V27.0131H20.4657L20.5057 24.8131ZM16.5057 17.0831C16.5057 16.9531 16.5557 16.8431 16.5757 16.7431C16.7835 15.7509 17.3283 14.8612 18.1176 14.225C18.9069 13.5888 19.892 13.2454 20.9057 13.2531C21.9228 13.2632 22.9044 13.6286 23.6805 14.286C24.4566 14.9434 24.9784 15.8515 25.1557 16.8531C25.2057 17.0931 25.3157 17.1031 25.5057 17.1031H30.6357H30.9057V11.3231H25.7557C25.1957 11.3231 25.1457 11.3231 24.9457 10.7431C24.6557 9.96308 24.3557 9.18308 24.0657 8.39308C24.0511 8.32148 24.0101 8.25801 23.9508 8.21537C23.8914 8.17273 23.8182 8.15407 23.7457 8.1631C21.7957 8.1631 19.8357 8.1631 17.8857 8.1631C17.8064 8.15139 17.7256 8.17089 17.6603 8.21751C17.595 8.26413 17.5504 8.33424 17.5357 8.4131C17.2557 9.2031 16.9657 9.98308 16.6857 10.7731C16.5257 11.2131 16.4457 11.2731 15.9857 11.2731H10.7457V17.1031L16.5057 17.0831ZM10.7757 23.8431H30.9957V18.0831H30.8457H25.4957C25.2757 18.0831 25.2557 18.1931 25.2157 18.3731C25.0738 19.2177 24.6783 19.9991 24.0817 20.6135C23.4851 21.2279 22.7157 21.6463 21.8757 21.8131C21.0447 22.0234 20.1695 21.9764 19.3659 21.6782C18.5623 21.3799 17.8682 20.8446 17.3757 20.1431C16.9354 19.5578 16.653 18.869 16.5557 18.1431H10.7757V23.8431ZM0.995694 28.0231V29.6031C0.995694 30.6031 1.39572 31.0131 2.39572 31.0131H19.3957C19.6438 31.0012 19.8798 30.9025 20.0625 30.7344C20.2453 30.5662 20.3632 30.3393 20.3957 30.0931C20.3957 29.4131 20.3957 28.7231 20.3957 28.0231H0.995694ZM0.995694 4.02308H20.3757C20.3757 3.32308 20.3757 2.63307 20.3757 1.95307C20.3463 1.75072 20.2556 1.56228 20.1157 1.4131C19.9898 1.27673 19.8339 1.17142 19.6604 1.10548C19.4869 1.03954 19.3004 1.01477 19.1157 1.03309H2.04571C1.78591 1.0496 1.54104 1.16026 1.35696 1.34434C1.17288 1.52842 1.06222 1.77329 1.04571 2.03309C0.975712 2.63309 1.0057 3.30307 1.0057 3.98307L0.995694 4.02308ZM20.9357 14.2431C20.4936 14.2391 20.0551 14.3225 19.6453 14.4883C19.2355 14.6541 18.8624 14.8992 18.5475 15.2095C18.2326 15.5198 17.982 15.8891 17.8101 16.2965C17.6381 16.7038 17.5483 17.141 17.5457 17.5831C17.5483 18.4734 17.9032 19.3265 18.5327 19.956C19.1623 20.5856 20.0154 20.9405 20.9057 20.9431C21.7907 20.9405 22.6387 20.5877 23.2645 19.9619C23.8903 19.3361 24.2431 18.4881 24.2457 17.6031C24.2563 17.1621 24.179 16.7234 24.0182 16.3126C23.8573 15.9019 23.6163 15.5273 23.309 15.2107C23.0018 14.8942 22.6346 14.642 22.2288 14.469C21.823 14.296 21.3868 14.2056 20.9457 14.2031L20.9357 14.2431ZM27.7657 10.2431H29.4357V8.33308H27.7657V10.2431ZM11.8757 10.2431H14.3157V9.58308H11.8557C11.8557 9.74308 11.8557 9.88308 11.8557 10.0231C11.8557 10.1631 11.8757 10.1531 11.8857 10.2431H11.8757Z" fill="#60FF00"/>
<path d="M28.6357 13.2629C28.8289 13.2529 29.0225 13.2529 29.2157 13.2629C29.2776 13.2665 29.3382 13.2828 29.3935 13.3109C29.4488 13.339 29.4977 13.3782 29.5372 13.4261C29.5766 13.474 29.6057 13.5295 29.6227 13.5892C29.6396 13.6489 29.6441 13.7114 29.6357 13.7729C29.6398 13.8323 29.6317 13.892 29.6121 13.9482C29.5924 14.0044 29.5616 14.0561 29.5213 14.1C29.4811 14.144 29.4324 14.1793 29.3782 14.2039C29.3239 14.2284 29.2653 14.2417 29.2057 14.2429C28.823 14.2729 28.4385 14.2729 28.0557 14.2429C27.9918 14.2404 27.929 14.2251 27.871 14.1979C27.8131 14.1708 27.7612 14.1323 27.7183 14.0848C27.6754 14.0373 27.6425 13.9817 27.6215 13.9212C27.6004 13.8608 27.5916 13.7968 27.5957 13.7329C27.5944 13.6704 27.6055 13.6082 27.6286 13.55C27.6516 13.4918 27.686 13.4388 27.7298 13.3941C27.7736 13.3494 27.8258 13.3139 27.8835 13.2896C27.9412 13.2654 28.0031 13.2529 28.0657 13.2529H28.6357V13.2629Z" fill="#60FF00"/>
<path d="M13.3256 14.2531C13.1457 14.2631 12.9654 14.2631 12.7855 14.2531C12.7226 14.2545 12.66 14.243 12.6017 14.2192C12.5433 14.1955 12.4905 14.16 12.4464 14.115C12.4024 14.07 12.368 14.0164 12.3455 13.9576C12.323 13.8988 12.3128 13.836 12.3155 13.7731C12.3069 13.7091 12.3122 13.6441 12.3309 13.5824C12.3497 13.5207 12.3814 13.4637 12.4241 13.4153C12.4668 13.3669 12.5194 13.3283 12.5783 13.302C12.6372 13.2758 12.7011 13.2625 12.7656 13.263C13.142 13.243 13.5192 13.243 13.8956 13.263C13.96 13.2654 14.0233 13.2811 14.0815 13.3089C14.1396 13.3368 14.1914 13.3764 14.2337 13.4252C14.2759 13.474 14.3076 13.5309 14.3268 13.5925C14.3461 13.6541 14.3524 13.7189 14.3455 13.7831C14.3484 13.8455 14.3382 13.9079 14.3156 13.9662C14.293 14.0245 14.2584 14.0775 14.2142 14.1217C14.17 14.1659 14.117 14.2005 14.0587 14.2231C14.0004 14.2457 13.938 14.2559 13.8755 14.2531C13.6923 14.2632 13.5087 14.2632 13.3256 14.2531Z" fill="#60FF00"/>
<path d="M10.7357 30.0027H9.38565C9.31362 30.0096 9.24096 30.0016 9.17212 29.9793C9.10328 29.9571 9.03972 29.9209 8.98538 29.8731C8.93104 29.8253 8.88705 29.7669 8.85614 29.7015C8.82523 29.6361 8.80807 29.565 8.80566 29.4927C8.80566 29.2027 9.00566 29.0127 9.36566 29.0127H12.0956C12.4656 29.0127 12.6656 29.2127 12.6556 29.5327C12.6456 29.8527 12.4557 30.0027 12.0857 30.0027H10.7357Z" fill="#60FF00"/>
<path d="M10.7057 2.99292H9.35565C9.00565 2.99292 8.80566 2.80293 8.80566 2.50293C8.80566 2.20293 9.00565 2.01293 9.35565 2.00293H12.0857C12.4457 2.00293 12.6656 2.21292 12.6556 2.52292C12.6456 2.83292 12.4557 2.99292 12.0857 2.99292H10.7057Z" fill="#60FF00"/>
<path d="M20.8063 15.6133C21.1663 15.6133 21.3963 15.7833 21.4063 16.0833C21.4163 16.3833 21.2463 16.5533 20.8763 16.6033C20.64 16.6213 20.4178 16.7227 20.2493 16.8894C20.0808 17.0561 19.977 17.2772 19.9563 17.5133C19.9096 17.9066 19.7296 18.0866 19.4163 18.0533C19.1063 18.0533 18.9563 17.8233 18.9663 17.4333C18.9952 16.9567 19.199 16.5074 19.5385 16.1716C19.878 15.8358 20.3294 15.637 20.8063 15.6133Z" fill="#60FF00"/>
</svg>
