<svg width="30" height="33" viewBox="0 0 30 33" fill="none" xmlns="http://www.w3.org/2000/svg">
<path d="M7.11 32.6819L6.64999 32.5227C6.23227 32.351 5.87924 32.0532 5.64064 31.6713C5.40204 31.2894 5.28989 30.8428 5.31999 30.3942C5.31999 27.0786 5.31999 23.7631 5.31999 20.4476V20.0099H2.79999C2.30999 20.0099 2.12 19.8309 2.12 19.3435V13.674H0.699997C0.179997 13.674 0 13.4949 0 12.9877C0 11.993 0 11.0679 0 10.1031C0 9.63564 0.179994 9.44667 0.649994 9.43673H2.12V3.23008C2.09249 2.91886 2.13387 2.60539 2.24124 2.31179C2.34861 2.01819 2.51935 1.75156 2.74146 1.53065C2.96356 1.30973 3.23163 1.13993 3.52681 1.03314C3.82199 0.926343 4.1371 0.885152 4.45 0.912509H21.63C22.0102 0.886584 22.3916 0.941342 22.7489 1.07308C23.1062 1.20483 23.4313 1.41057 23.7027 1.67671C23.9741 1.94286 24.1855 2.26332 24.3229 2.61685C24.4604 2.97039 24.5207 3.34892 24.5 3.72741V15.723H29.14C29.63 15.723 29.82 15.902 29.82 16.3993V19.3137C29.82 19.7613 29.63 19.9503 29.17 19.9503H24.52V28.4347H24.9C25.4266 28.4195 25.9401 28.599 26.3414 28.9384C26.7427 29.2778 27.0034 29.7531 27.073 30.2724C27.1426 30.7918 27.0163 31.3184 26.7184 31.7505C26.4205 32.1827 25.9722 32.4896 25.46 32.6122L25.35 32.662L7.11 32.6819ZM14.38 19.9801C14.4009 20.1453 14.4009 20.3123 14.38 20.4775C14.31 20.6565 14.22 20.8952 14.07 20.9648C13.9769 20.9959 13.8777 21.0049 13.7805 20.9911C13.6833 20.9772 13.5906 20.941 13.51 20.8852C12.44 20.0298 11.39 19.1545 10.34 18.2792C10.2719 18.2326 10.2163 18.1702 10.1778 18.0974C10.1394 18.0246 10.1193 17.9437 10.1193 17.8615C10.1193 17.7793 10.1394 17.6983 10.1778 17.6255C10.2163 17.5528 10.2719 17.4903 10.34 17.4437C11.34 16.5684 12.44 15.6832 13.51 14.8278C13.5921 14.775 13.685 14.7414 13.782 14.7293C13.879 14.7173 13.9774 14.7272 14.07 14.7582C14.2269 14.8758 14.3367 15.045 14.38 15.2356C14.4002 15.4008 14.4002 15.5678 14.38 15.7329H23.43V3.72741C23.4573 3.48613 23.4294 3.24186 23.3485 3.0128C23.2675 2.78374 23.1356 2.57582 22.9625 2.40462C22.7894 2.23341 22.5796 2.10334 22.3489 2.02409C22.1182 1.94484 21.8724 1.91849 21.63 1.94699H6.09C6.34242 2.4232 6.44685 2.96329 6.39 3.49865V9.33729H15.45C15.4246 9.17915 15.4246 9.01795 15.45 8.85981C15.51 8.68077 15.6 8.44206 15.75 8.37244C15.8426 8.34143 15.941 8.33161 16.038 8.34366C16.1349 8.35572 16.2279 8.38935 16.31 8.44207C17.38 9.29748 18.42 10.1628 19.46 11.0381C19.5344 11.0847 19.5956 11.1493 19.6381 11.2258C19.6806 11.3024 19.7029 11.3883 19.7029 11.4758C19.7029 11.5632 19.6806 11.6492 19.6381 11.7257C19.5956 11.8022 19.5344 11.8668 19.46 11.9134C18.46 12.7887 17.38 13.6541 16.32 14.5095C16.2358 14.5618 16.1412 14.595 16.0427 14.6071C15.9443 14.6191 15.8444 14.6095 15.75 14.5791C15.5993 14.4577 15.4937 14.2896 15.45 14.1017C15.4248 13.9402 15.4248 13.7758 15.45 13.6143H6.39V30.3742C6.37021 30.5262 6.38301 30.6806 6.42758 30.8273C6.47215 30.9739 6.54749 31.1095 6.64859 31.2251C6.74969 31.3407 6.87428 31.4338 7.01414 31.498C7.15401 31.5622 7.30596 31.5962 7.45999 31.5977C7.61398 31.5933 7.76536 31.5569 7.90448 31.4911C8.0436 31.4253 8.16742 31.3314 8.26807 31.2154C8.36871 31.0994 8.44398 30.9638 8.48907 30.8172C8.53417 30.6707 8.54811 30.5165 8.53 30.3644V29.1807C8.53 28.5541 8.66999 28.4248 9.29999 28.4248H23.4V19.9503L14.38 19.9801ZM16.52 10.0336C16.37 10.4513 16.08 10.4911 15.75 10.4911H1.09V12.6097H15.75C16.1 12.6097 16.39 12.6594 16.52 13.0573L18.34 11.5454L16.52 10.0336ZM13.31 19.4132C13.358 19.2636 13.4575 19.1357 13.5911 19.0519C13.7246 18.9682 13.8836 18.9341 14.04 18.9556H28.74V16.837H14.1C13.74 16.837 13.44 16.837 13.31 16.3794L11.49 17.8913L13.31 19.4132ZM9.42999 31.6674H25.06C25.202 31.6599 25.341 31.624 25.4688 31.562C25.5966 31.5 25.7105 31.413 25.8038 31.3063C25.8971 31.1996 25.9679 31.0753 26.0119 30.9408C26.0559 30.8063 26.0723 30.6644 26.06 30.5235C26.061 30.3822 26.0318 30.2423 25.9742 30.1131C25.9166 29.9839 25.832 29.8684 25.726 29.7743C25.6201 29.6802 25.4952 29.6096 25.3596 29.5673C25.2241 29.525 25.081 29.5119 24.94 29.5288H9.84H9.65999L9.42999 31.6674ZM5.32999 9.40692V3.87663C5.32999 3.57823 5.32999 3.27981 5.32999 2.98141C5.331 2.73241 5.2381 2.49207 5.06961 2.30791C4.90112 2.12374 4.66932 2.00916 4.42 1.98676C4.1813 1.9566 3.93937 2.00809 3.73401 2.13282C3.52865 2.25755 3.37207 2.44809 3.28999 2.67307C3.23599 2.85023 3.21234 3.03515 3.22 3.22012C3.22 5.20943 3.22 7.09927 3.22 9.0488V9.36709L5.32999 9.40692ZM3.20999 18.9357H5.31V13.674H3.20999V18.9357ZM21.27 25.2916V24.2969H10.67V25.2916H21.27ZM21.27 27.4102V26.4155H10.67V27.4102H21.27ZM13.83 5.15971V4.16506H8.53999V5.15971H13.83ZM8.54999 6.26377V7.25843H13.84V6.26377H8.54999ZM18.12 22.1783V23.1729H21.28V22.1783H18.12Z" fill="#BFC6D0"/>
</svg>
