<svg width="30" height="32" viewBox="0 0 30 32" fill="none" xmlns="http://www.w3.org/2000/svg">
<path d="M7.11 31.9483L6.64999 31.7883C6.23227 31.6156 5.87924 31.3162 5.64064 30.9323C5.40204 30.5484 5.28989 30.0993 5.31999 29.6483C5.31999 26.3149 5.31999 22.9816 5.31999 19.6483V19.2083H2.79999C2.30999 19.2083 2.12 19.0283 2.12 18.5383V12.8383H0.699997C0.179997 12.8383 0 12.6583 0 12.1483C0 11.1483 0 10.2182 0 9.24825C0 8.77825 0.179994 8.58826 0.649994 8.57826H2.12V2.33827C2.09249 2.02538 2.13387 1.71023 2.24124 1.41506C2.34861 1.11988 2.51935 0.851817 2.74146 0.629716C2.96356 0.407614 3.23163 0.236901 3.52681 0.129533C3.82199 0.0221646 4.1371 -0.0192473 4.45 0.00825575H21.63C22.0102 -0.0178084 22.3916 0.0372439 22.7489 0.169694C23.1062 0.302144 23.4313 0.508995 23.7027 0.776566C23.9741 1.04414 24.1855 1.36632 24.3229 1.72176C24.4604 2.07719 24.5207 2.45775 24.5 2.83827V14.8983H29.14C29.63 14.8983 29.82 15.0783 29.82 15.5783V18.5083C29.82 18.9583 29.63 19.1483 29.17 19.1483H24.52V27.6783H24.9C25.4266 27.663 25.9401 27.8434 26.3414 28.1846C26.7427 28.5259 27.0034 29.0037 27.073 29.5259C27.1426 30.0481 27.0163 30.5775 26.7184 31.0119C26.4205 31.4464 25.9722 31.755 25.46 31.8783L25.35 31.9283L7.11 31.9483ZM14.38 19.1783C14.4009 19.3443 14.4009 19.5123 14.38 19.6783C14.31 19.8583 14.22 20.0983 14.07 20.1683C13.9769 20.1995 13.8777 20.2085 13.7805 20.1947C13.6833 20.1808 13.5906 20.1443 13.51 20.0883C12.44 19.2283 11.39 18.3483 10.34 17.4683C10.2719 17.4214 10.2163 17.3586 10.1778 17.2855C10.1394 17.2123 10.1193 17.1309 10.1193 17.0483C10.1193 16.9656 10.1394 16.8842 10.1778 16.8111C10.2163 16.7379 10.2719 16.6751 10.34 16.6283C11.34 15.7483 12.44 14.8582 13.51 13.9982C13.5921 13.9452 13.685 13.9114 13.782 13.8993C13.879 13.8872 13.9774 13.8971 14.07 13.9283C14.2269 14.0466 14.3367 14.2166 14.38 14.4083C14.4002 14.5743 14.4002 14.7422 14.38 14.9083H23.43V2.83827C23.4573 2.5957 23.4294 2.35012 23.3485 2.11983C23.2675 1.88954 23.1356 1.6805 22.9625 1.50838C22.7894 1.33625 22.5796 1.20548 22.3489 1.12581C22.1182 1.04614 21.8724 1.01964 21.63 1.04829H6.09C6.34242 1.52706 6.44685 2.07005 6.39 2.60829V8.47829H15.45C15.4246 8.3193 15.4246 8.15724 15.45 7.99825C15.51 7.81825 15.6 7.57826 15.75 7.50826C15.8426 7.47708 15.941 7.46721 16.038 7.47933C16.1349 7.49144 16.2279 7.52526 16.31 7.57826C17.38 8.43826 18.42 9.30825 19.46 10.1882C19.5344 10.2351 19.5956 10.3 19.6381 10.377C19.6806 10.4539 19.7029 10.5404 19.7029 10.6283C19.7029 10.7161 19.6806 10.8026 19.6381 10.8795C19.5956 10.9565 19.5344 11.0214 19.46 11.0683C18.46 11.9483 17.38 12.8183 16.32 13.6783C16.2358 13.7308 16.1412 13.7643 16.0427 13.7764C15.9443 13.7885 15.8444 13.7789 15.75 13.7482C15.5993 13.6262 15.4937 13.4572 15.45 13.2683C15.4248 13.1059 15.4248 12.9406 15.45 12.7783H6.39V29.6283C6.37021 29.781 6.38301 29.9362 6.42758 30.0837C6.47215 30.2311 6.54749 30.3675 6.64859 30.4837C6.74969 30.5999 6.87428 30.6935 7.01414 30.758C7.15401 30.8226 7.30596 30.8567 7.45999 30.8583C7.61398 30.8538 7.76536 30.8173 7.90448 30.7511C8.0436 30.6849 8.16742 30.5905 8.26807 30.4739C8.36871 30.3573 8.44398 30.2209 8.48907 30.0736C8.53417 29.9263 8.54811 29.7713 8.53 29.6183V28.4283C8.53 27.7983 8.66999 27.6683 9.29999 27.6683H23.4V19.1483L14.38 19.1783ZM16.52 9.1783C16.37 9.5983 16.08 9.63826 15.75 9.63826H1.09V11.7683H15.75C16.1 11.7683 16.39 11.8183 16.52 12.2183L18.34 10.6983L16.52 9.1783ZM13.31 18.6083C13.358 18.4579 13.4575 18.3293 13.5911 18.2451C13.7246 18.161 13.8836 18.1267 14.04 18.1483H28.74V16.0183H14.1C13.74 16.0183 13.44 16.0182 13.31 15.5582L11.49 17.0783L13.31 18.6083ZM9.42999 30.9283H25.06C25.202 30.9208 25.341 30.8848 25.4688 30.8224C25.5966 30.76 25.7105 30.6726 25.8038 30.5653C25.8971 30.458 25.9679 30.333 26.0119 30.1978C26.0559 30.0626 26.0723 29.9199 26.06 29.7783C26.061 29.6362 26.0318 29.4955 25.9742 29.3657C25.9166 29.2358 25.832 29.1197 25.726 29.0251C25.6201 28.9305 25.4952 28.8595 25.3596 28.817C25.2241 28.7744 25.081 28.7612 24.94 28.7783H9.84H9.65999L9.42999 30.9283ZM5.32999 8.5483V2.9883C5.32999 2.6883 5.32999 2.38827 5.32999 2.08827C5.331 1.83794 5.2381 1.5963 5.06961 1.41115C4.90112 1.226 4.66932 1.1108 4.42 1.08827C4.1813 1.05795 3.93937 1.10973 3.73401 1.23512C3.52865 1.36052 3.37207 1.55208 3.28999 1.77828C3.23599 1.95639 3.21234 2.1423 3.22 2.32826C3.22 4.32826 3.22 6.22825 3.22 8.18825V8.50826L5.32999 8.5483ZM3.20999 18.1283H5.31V12.8383H3.20999V18.1283ZM21.27 24.5183V23.5183H10.67V24.5183H21.27ZM21.27 26.6483V25.6483H10.67V26.6483H21.27ZM13.83 4.27828V3.27828H8.53999V4.27828H13.83ZM8.54999 5.38826V6.38826H13.84V5.38826H8.54999ZM18.12 21.3883V22.3883H21.28V21.3883H18.12Z" fill="#60FF00"/>
</svg>
