<svg width="35" height="23" viewBox="0 0 35 23" fill="none" xmlns="http://www.w3.org/2000/svg">
<g clip-path="url(#clip0_461_5798)">
<path d="M34.7139 16.8208H26.3066C26.3339 17.3384 26.3339 17.857 26.3066 18.3746C26.2822 18.8995 26.1723 19.417 25.9812 19.9068C25.7098 20.5632 25.2434 21.1216 24.6444 21.5072C24.0454 21.8928 23.3423 22.0874 22.6291 22.0649C19.1035 22.0649 15.5778 22.0649 12.0522 22.0649C11.5559 22.0743 11.063 21.9822 10.6041 21.7943C10.1451 21.6065 9.72981 21.3268 9.38399 20.9727C9.03816 20.6186 8.76916 20.1977 8.59367 19.7359C8.41818 19.2741 8.33995 18.7814 8.36381 18.2883V16.864H8.14684H0.0107422V15.7202C0.0866791 15.3534 0.140921 14.9757 0.249402 14.6412C0.525722 13.5884 1.04941 12.6158 1.77739 11.8035C2.50536 10.9913 3.41682 10.3625 4.43678 9.96905L4.65374 9.87194C4.18639 9.53305 3.79866 9.09721 3.51736 8.59456C3.23607 8.09192 3.06795 7.53448 3.02462 6.96083C2.98128 6.38717 3.06378 5.81101 3.26641 5.27219C3.46903 4.73338 3.78693 4.24479 4.19812 3.84025C4.94588 3.12482 5.94312 2.7252 6.98067 2.7252C8.01821 2.7252 9.01545 3.12482 9.76321 3.84025C10.1673 4.24142 10.4803 4.72418 10.6808 5.2559C10.8814 5.78761 10.965 6.35591 10.9259 6.9225C10.8868 7.48908 10.726 8.04073 10.4543 8.54023C10.1827 9.03973 9.8064 9.47547 9.35098 9.81801L11.5965 11.1344C12.063 10.8323 12.5403 10.4762 13.061 10.1957C13.5817 9.91512 14.1458 9.71009 14.6883 9.46191C13.952 9.00785 13.347 8.37133 12.9324 7.61473C12.5178 6.85813 12.308 6.00738 12.3234 5.14585C12.3279 4.46878 12.475 3.80017 12.7553 3.18315C13.0356 2.56612 13.4427 2.01441 13.9506 1.56354C14.9278 0.694037 16.2053 0.234265 17.5156 0.280525C18.8259 0.326784 20.0674 0.875467 20.9802 1.81169C21.4876 2.35625 21.8683 3.00521 22.0954 3.71251C22.3224 4.41982 22.3902 5.16812 22.2939 5.9044C22.1976 6.64067 21.9396 7.34687 21.5382 7.97287C21.1368 8.59886 20.6019 9.12932 19.9713 9.52665C21.1062 9.87539 22.1606 10.4438 23.0739 11.1991L25.4062 9.83958C24.8522 9.43568 24.4144 8.8943 24.1364 8.26949C23.8585 7.64467 23.7502 6.95829 23.8224 6.27883C23.8643 5.77282 24.009 5.28052 24.2477 4.8317C24.4863 4.38289 24.814 3.98686 25.211 3.6676C25.9908 3.03082 26.9846 2.71228 27.9914 2.77638C28.9983 2.84047 29.9432 3.28243 30.635 4.01289C31.0089 4.42472 31.2918 4.90991 31.4655 5.43717C31.6393 5.96443 31.7 6.52206 31.6438 7.0741C31.5876 7.62614 31.4157 8.16035 31.1392 8.64225C30.8626 9.12414 30.4876 9.54304 30.0384 9.87194C30.418 10.0662 30.8086 10.2173 31.1232 10.4331C32.0656 10.9622 32.8692 11.705 33.4686 12.6012C34.068 13.4974 34.4464 14.5217 34.5729 15.5908C34.5844 15.6536 34.6026 15.7151 34.6271 15.7742L34.7139 16.8208ZM17.3569 20.9535H18.0295C19.6675 20.9535 21.2839 20.9535 22.9437 20.9535C23.5137 20.9118 24.0512 20.6733 24.4632 20.2792C24.8752 19.8852 25.1359 19.3604 25.2001 18.7954C25.3973 16.7989 24.8189 14.8029 23.5837 13.2169C22.5752 11.9254 21.1856 10.9803 19.6098 10.5139C18.034 10.0476 16.351 10.0834 14.7967 10.6165C13.3996 11.0745 12.1641 11.9221 11.2372 13.0583C10.3103 14.1945 9.73086 15.5716 9.56794 17.0258C9.44853 17.7004 9.44853 18.3906 9.56794 19.0652C9.68774 19.6448 10.0162 20.1609 10.4917 20.5165C10.9671 20.8722 11.5567 21.0429 12.1498 20.9966L17.3569 20.9535ZM17.3569 9.03031C17.8716 9.03458 18.382 8.93761 18.8589 8.74498C19.3358 8.55236 19.7697 8.26788 20.1356 7.9079C20.5016 7.54791 20.7924 7.11953 20.9913 6.64738C21.1902 6.17522 21.2934 5.66859 21.2948 5.15665C21.2976 4.64523 21.1987 4.13831 21.0035 3.66513C20.8084 3.19195 20.5211 2.7619 20.158 2.39977C19.7949 2.03763 19.3633 1.75059 18.8882 1.55521C18.413 1.35982 17.9036 1.25998 17.3894 1.26141C16.3498 1.25854 15.3514 1.66583 14.6133 2.39401C13.8751 3.12218 13.4573 4.11177 13.4516 5.14585C13.457 6.16327 13.8613 7.13845 14.5785 7.8639C15.2957 8.58936 16.2692 9.00784 17.2918 9.03031H17.3569ZM33.6291 15.6879C33.5084 14.5621 33.0588 13.4962 32.3359 12.6217C31.6129 11.7473 30.6482 11.1027 29.561 10.7675C28.6248 10.4699 27.6269 10.4187 26.6648 10.6192C25.7027 10.8197 24.8093 11.2649 24.0719 11.9113C24.4624 12.4832 24.9072 12.9903 25.2326 13.6161C25.5581 14.242 25.7642 14.9002 26.0571 15.526C26.0571 15.6123 26.2741 15.6879 26.3934 15.6879H33.6291ZM1.1932 15.6879H1.36676H8.48313C8.66754 15.6879 8.73264 15.6015 8.77603 15.4397C9.01896 14.577 9.40386 13.7603 9.91509 13.0227L10.7721 11.8681C9.90926 11.1301 8.84565 10.6633 7.71593 10.5269C6.58621 10.3906 5.44121 10.5907 4.42594 11.102C3.52754 11.5172 2.75143 12.1549 2.17206 12.9542C1.59269 13.7534 1.22948 14.6873 1.11726 15.6663L1.1932 15.6879ZM30.6892 6.58096C30.6807 5.82723 30.3744 5.10709 29.8365 4.57611C29.2986 4.04513 28.5723 3.74592 27.8145 3.74314C27.0557 3.75444 26.3317 4.06146 25.7982 4.5982C25.2646 5.13495 24.9642 5.85853 24.9614 6.61333C24.9756 7.36144 25.2828 8.07447 25.8178 8.60052C26.3528 9.12658 27.0731 9.42405 27.8253 9.42954C28.5727 9.40169 29.2802 9.08739 29.7999 8.55241C30.3196 8.01744 30.611 7.30324 30.6133 6.55936L30.6892 6.58096ZM9.86084 6.45148C9.82703 5.70533 9.49772 5.00281 8.94485 4.49738C8.39199 3.99194 7.66049 3.72467 6.91015 3.75394C6.53398 3.7664 6.16406 3.85303 5.82183 4.00884C5.4796 4.16465 5.1719 4.38651 4.91657 4.66156C4.66124 4.93661 4.46337 5.25935 4.33445 5.61107C4.20553 5.96279 4.14813 6.33647 4.16558 6.71043C4.17665 7.08222 4.26222 7.44806 4.41728 7.78652C4.57234 8.12498 4.79377 8.42925 5.06859 8.6815C5.3434 8.93374 5.66608 9.12888 6.0177 9.25548C6.36932 9.38208 6.7428 9.43761 7.11627 9.41878C7.48975 9.39958 7.85568 9.30667 8.19274 9.1455C8.5298 8.98433 8.83126 8.75811 9.07959 8.47997C9.32793 8.20183 9.51818 7.87734 9.63927 7.52539C9.76035 7.17344 9.80987 6.80104 9.78491 6.42988L9.86084 6.45148Z" fill="#BFC6D0"/>
</g>
<defs>
<clipPath id="clip0_461_5798">
<rect width="34.714" height="21.8825" fill="white" transform="translate(0 0.182617)"/>
</clipPath>
</defs>
</svg>
