<svg width="35" height="22" viewBox="0 0 35 22" fill="none" xmlns="http://www.w3.org/2000/svg">
<path d="M34.7139 16.7276H26.3066C26.3339 17.2479 26.3339 17.7693 26.3066 18.2897C26.2822 18.8174 26.1723 19.3376 25.9812 19.8301C25.7098 20.4901 25.2434 21.0514 24.6444 21.4391C24.0454 21.8268 23.3423 22.0224 22.6291 21.9998C19.1035 21.9998 15.5778 21.9998 12.0522 21.9998C11.5559 22.0092 11.063 21.9167 10.6041 21.7278C10.1451 21.5389 9.72981 21.2578 9.38399 20.9018C9.03816 20.5458 8.76916 20.1225 8.59367 19.6583C8.41818 19.194 8.33995 18.6987 8.36381 18.2029V16.771H8.14684H0.0107422V15.6211C0.0866791 15.2522 0.140921 14.8725 0.249402 14.5362C0.525722 13.4777 1.04941 12.4999 1.77739 11.6833C2.50536 10.8667 3.41682 10.2346 4.43678 9.83898L4.65374 9.74135C4.18639 9.40064 3.79866 8.96246 3.51736 8.45711C3.23607 7.95177 3.06795 7.39133 3.02462 6.8146C2.98128 6.23786 3.06378 5.6586 3.26641 5.1169C3.46903 4.57519 3.78693 4.08398 4.19812 3.67726C4.94588 2.95798 5.94312 2.55622 6.98067 2.55622C8.01821 2.55622 9.01545 2.95798 9.76321 3.67726C10.1673 4.08059 10.4803 4.56593 10.6808 5.10051C10.8814 5.63508 10.965 6.20644 10.9259 6.77606C10.8868 7.34569 10.726 7.90031 10.4543 8.40249C10.1827 8.90467 9.8064 9.34275 9.35098 9.68713L11.5965 11.0106C12.063 10.7069 12.5403 10.3489 13.061 10.0668C13.5817 9.78477 14.1458 9.57863 14.6883 9.32912C13.952 8.87262 13.347 8.23268 12.9324 7.47201C12.5178 6.71135 12.308 5.85603 12.3234 4.98987C12.3279 4.30917 12.475 3.63697 12.7553 3.01663C13.0356 2.39629 13.4427 1.84161 13.9506 1.38832C14.9278 0.514147 16.2053 0.0519049 17.5156 0.0984128C18.8259 0.144921 20.0674 0.696551 20.9802 1.6378C21.4876 2.18529 21.8683 2.83774 22.0954 3.54884C22.3224 4.25994 22.3902 5.01227 22.2939 5.7525C22.1976 6.49272 21.9396 7.20271 21.5382 7.83207C21.1368 8.46143 20.6019 8.99474 19.9713 9.39421C21.1062 9.74482 22.1606 10.3163 23.0739 11.0757L25.4062 9.70881C24.8522 9.30274 24.4144 8.75846 24.1364 8.13029C23.8585 7.50212 23.7502 6.81205 23.8224 6.12894C23.8643 5.62021 24.009 5.12527 24.2477 4.67404C24.4863 4.22281 24.814 3.82466 25.211 3.50368C25.9908 2.86349 26.9846 2.54323 27.9914 2.60767C28.9983 2.67211 29.9432 3.11645 30.635 3.85083C31.0089 4.26487 31.2918 4.75266 31.4655 5.28276C31.6393 5.81285 31.7 6.37348 31.6438 6.92848C31.5876 7.48349 31.4157 8.02056 31.1392 8.50505C30.8626 8.98954 30.4876 9.41069 30.0384 9.74135C30.418 9.93662 30.8086 10.0885 31.1232 10.3055C32.0656 10.8374 32.8692 11.5843 33.4686 12.4853C34.068 13.3863 34.4464 14.4161 34.5729 15.4909C34.5844 15.5541 34.6026 15.6159 34.6271 15.6753L34.7139 16.7276ZM17.3569 20.8824H18.0295C19.6675 20.8824 21.2839 20.8824 22.9437 20.8824C23.5137 20.8405 24.0512 20.6007 24.4632 20.2046C24.8752 19.8084 25.1359 19.2807 25.2001 18.7128C25.3973 16.7055 24.8189 14.6988 23.5837 13.1043C22.5752 11.8059 21.1856 10.8556 19.6098 10.3868C18.034 9.91794 16.351 9.95399 14.7967 10.4899C13.3996 10.9504 12.1641 11.8025 11.2372 12.9448C10.3103 14.0871 9.73086 15.4716 9.56794 16.9337C9.44853 17.6119 9.44853 18.3058 9.56794 18.984C9.68774 19.5667 10.0162 20.0855 10.4917 20.4431C10.9671 20.8007 11.5567 20.9723 12.1498 20.9258L17.3569 20.8824ZM17.3569 8.8952C17.8716 8.89949 18.382 8.802 18.8589 8.60834C19.3358 8.41468 19.7697 8.12868 20.1356 7.76675C20.5016 7.40483 20.7924 6.97416 20.9913 6.49946C21.1902 6.02477 21.2934 5.51542 21.2948 5.00073C21.2976 4.48656 21.1987 3.97692 21.0035 3.5012C20.8084 3.02548 20.5211 2.59312 20.158 2.22904C19.7949 1.86496 19.3633 1.57637 18.8882 1.37994C18.413 1.18351 17.9036 1.08313 17.3894 1.08457C16.3498 1.08168 15.3514 1.49116 14.6133 2.22325C13.8751 2.95533 13.4573 3.95024 13.4516 4.98987C13.457 6.01276 13.8613 6.99317 14.5785 7.72253C15.2957 8.45188 16.2692 8.87261 17.2918 8.8952H17.3569ZM33.6291 15.5885C33.5084 14.4567 33.0588 13.385 32.3359 12.5059C31.6129 11.6268 30.6482 10.9787 29.561 10.6418C28.6248 10.3425 27.6269 10.2911 26.6648 10.4926C25.7027 10.6942 24.8093 11.1418 24.0719 11.7917C24.4624 12.3666 24.9072 12.8765 25.2326 13.5057C25.5581 14.1348 25.7642 14.7966 26.0571 15.4258C26.0571 15.5126 26.2741 15.5885 26.3934 15.5885H33.6291ZM1.1932 15.5885H1.36676H8.48313C8.66754 15.5885 8.73264 15.5017 8.77603 15.339C9.01896 14.4717 9.40386 13.6506 9.91509 12.909L10.7721 11.7483C9.90926 11.0062 8.84565 10.537 7.71593 10.3999C6.58621 10.2628 5.44121 10.464 4.42594 10.9781C3.52754 11.3954 2.75143 12.0366 2.17206 12.8401C1.59269 13.6437 1.22948 14.5826 1.11726 15.5668L1.1932 15.5885ZM30.6892 6.43269C30.6807 5.67491 30.3744 4.9509 29.8365 4.41707C29.2986 3.88324 28.5723 3.58243 27.8145 3.57963C27.0557 3.59099 26.3317 3.89966 25.7982 4.43929C25.2646 4.97891 24.9642 5.70638 24.9614 6.46523C24.9756 7.21736 25.2828 7.93422 25.8178 8.4631C26.3528 8.99198 27.0731 9.29105 27.8253 9.29658C28.5727 9.26857 29.2802 8.95259 29.7999 8.41474C30.3196 7.87688 30.611 7.15885 30.6133 6.41097L30.6892 6.43269ZM9.86084 6.30252C9.82703 5.55236 9.49772 4.84606 8.94485 4.33792C8.39199 3.82977 7.66049 3.56106 6.91015 3.59048C6.53398 3.60301 6.16406 3.69011 5.82183 3.84676C5.4796 4.0034 5.1719 4.22646 4.91657 4.50298C4.66124 4.7795 4.46337 5.10398 4.33445 5.45759C4.20553 5.8112 4.14813 6.18689 4.16558 6.56286C4.17665 6.93664 4.26222 7.30444 4.41728 7.64473C4.57234 7.98501 4.79377 8.29091 5.06859 8.54451C5.3434 8.79811 5.66608 8.9943 6.0177 9.12158C6.36932 9.24886 6.7428 9.30468 7.11627 9.28575C7.48975 9.26645 7.85568 9.17304 8.19274 9.01101C8.5298 8.84897 8.83126 8.62153 9.07959 8.3419C9.32793 8.06227 9.51818 7.73604 9.63927 7.3822C9.76035 7.02836 9.80987 6.65395 9.78491 6.2808L9.86084 6.30252Z" fill="#60FF00"/>
</svg>
